<svg xmlns="http://www.w3.org/2000/svg" viewBox="0 0 3840 2160"><path fill="#fff" d="M3839.997 2160H0V.001h3839.997V2160"/><path fill="#f6f7f7" d="M1068.577 2160h-5.066l60.569-130.533c1.312.813 2.7 1.48 4.136 2L1068.577 2160m-490.672 0h-4.972l-198.748-482.173a28.669 28.669 0 0 0 4.248-1.76L577.905 2160m-113.71 0h-5.728l-185.375-249.493a21.145 21.145 0 0 0 3.761-2.64L464.195 2160m709.624-14.12l-34.352-113.427a21.854 21.854 0 0 0 4.425-1.253l34.383 113.533c-1.516.12-3.024.494-4.456 1.147m-17.011-141.293a21.545 21.545 0 0 0-1.75-4.24l159.113-63.894-23.242 14.294-134.121 53.84m-36.567-9.44L949.943 1776.28c.488-.253.965-.533 1.426-.867a12.354 12.354 0 0 0 2.19-1.96l170.272 218.827c-.27.173-.538.347-.803.533a21.795 21.795 0 0 0-2.787 2.334m196.014-54.574l23.238-14.28 53.294-21.4a22.622 22.622 0 0 0 6.893 2.187l-83.425 33.493m-1045.938-33.8l-3.272-4.4c.787-.32 1.55-.72 2.272-1.24.568-.4 1.087-.84 1.555-1.32l3.227 4.347c-.527.48-1.09.933-1.691 1.36-.675.48-1.373.893-2.09 1.253m1132.615-4.053c-1.266 0-2.52-.133-3.733-.4l18.307-7.347.08.04a17.77 17.77 0 0 1-8.707 6.68 17.891 17.891 0 0 1-5.947 1.027m17.667-4.04c.413-.533.8-1.08 1.16-1.64l1.32.64-2.48 1m8.24-3.307l-4.987-2.426c.08-.2.147-.414.227-.614l106.147-42.613a21.618 21.618 0 0 0 2.08 4.107l-103.467 41.546m-1174.472-10.066l-3.272-4.4a15.787 15.787 0 0 1 2.453-2.12c.376-.267.759-.52 1.148-.747l3.227 4.347c-.439.226-.867.48-1.281.773a11.266 11.266 0 0 0-2.275 2.147m-6.047-8.134l-40.966-55.133a17.376 17.376 0 0 0 1.946-1.173c.648-.467 1.251-.96 1.806-1.494l40.836 54.96c-.352.227-.7.454-1.043.694-.93.653-1.79 1.373-2.579 2.146m1281.226-40.906l-108.08-41.56.853-4.6 108.867 41.853a22.195 22.195 0 0 0-1.64 4.307m-112.44-43.24l-220.242-84.707a12.16 12.16 0 0 0 1.676-4.28l219.419 84.387-.853 4.6M189.075 1797.427L0 1542.96v-7.707l192.704 259.36c-.45.254-.893.534-1.325.84a15.039 15.039 0 0 0-2.304 1.974m745.87-40.414L794.036 1575.92c.227-.147.452-.307.677-.467a44.149 44.149 0 0 0 2.983-2.306l140.89 181.053c-.523.267-1.033.573-1.526.92-.79.56-1.497 1.2-2.115 1.893m239.488-57.32l-105.88-40.706a17.536 17.536 0 0 0 1.748-4.267l105.752 40.68a12.213 12.213 0 0 0-1.62 4.293m-802.006-26.133l-3.099-7.52a15.324 15.324 0 0 0 4.245-1.773l3.102 7.533a23.501 23.501 0 0 1-4.248 1.76m8.624-23.92a15.433 15.433 0 0 0-1.062-4.48l7.832-2.12c.519 1.467.886 2.96 1.106 4.467l-7.876 2.133m-30.688-2l-7.55-3.053c.412-1.48.966-2.92 1.659-4.294l7.52 3.04a15.586 15.586 0 0 0-1.63 4.307m686.246-.947l-228.196-87.76a40.35 40.35 0 0 0 1.67-4.28l228.074 87.707a17.47 17.47 0 0 0-1.548 4.333m-643.217-.4a28.206 28.206 0 0 0-1.12-4.453l101.22-27.4 237.213-64.187c.31 1.494.705 2.974 1.188 4.44l-338.501 91.6m-54.862-3.44L0 1505.947v-4.96l340.199 137.573a28.6 28.6 0 0 0-1.67 4.293m14.895-1.64l-5.476-6.026a24.268 24.268 0 0 1 3.388-3.107l5.468 6.013c-.07.054-.141.094-.21.147a15.796 15.796 0 0 0-3.17 2.973m9.561-5.6l-.253-8.12a24.442 24.442 0 0 1 4.595-.093l.254 8.133a14.887 14.887 0 0 0-2.038-.133c-.854 0-1.71.067-2.558.213m-18.144-3.84L43.558 1300.35 0 1403.987v-11.854l40.15-95.534-25.975-28.572L0 1330.835v-20.887l10.4-46.076-10.4-11.44v-6.835l11.635 12.8 35.935-159.214L0 1069.872v-5.403l48.641 29.97 93.543-414.452L4.211 732.04c-.27-1.493-.7-2.987-1.292-4.427l140.477-53 52.801-233.946a15.62 15.62 0 0 0 4.419 1.306l-52.07 230.694 148.59-56.054c.44 1.454.972 2.894 1.597 4.307l-151.398 57.12-94.555 418.948 56.604 34.876 207.003-492.53a37.963 37.963 0 0 0 4.24 1.773l-207.283 493.198 219.124 135.011a26.636 26.636 0 0 0-2.443 3.896l-218.484-134.616-66.018 157.08 302.709 332.99c-1.23.96-2.361 2-3.39 3.107M51.707 1101.732l-36.295 160.819 26.702 29.376 65.466-155.771-55.873-34.424m310.88 521.148l-9.7-310.401a26.97 26.97 0 0 0 4.593-.198l9.702 310.506c-.554-.04-1.11-.054-1.664-.054-.978 0-1.956.054-2.931.147m428.616-50.6l-8.99-11.547c.491-.293.974-.613 1.45-.946.795-.56 1.541-1.16 2.237-1.8l8.968 11.52a36.005 36.005 0 0 1-2.805 2.186c-.285.2-.57.4-.86.587m12.908-15l-13.645-5.24a22.002 22.002 0 0 0 1.694-4.28l13.624 5.24a35.366 35.366 0 0 1-1.673 4.28m-67.773-3.787a36.397 36.397 0 0 1-1.188-4.44l14.11-3.813a22 22 0 0 0 1.184 4.44l-14.106 3.813m14.681-20.893l-12.453-7.667a35.759 35.759 0 0 1 2.37-3.946l12.434 7.666a21.718 21.718 0 0 0-2.351 3.947m8.195-9.36l-6.199-13.267a36.542 36.542 0 0 1 4.14-2l6.18 13.227c-1.417.52-2.8 1.213-4.121 2.04m-24.572-.733l-358.85-221.096c.908-1.251 1.7-2.57 2.372-3.939l358.852 221.101a42.492 42.492 0 0 0-2.374 3.934m16.422-16.707L630.24 1247.11a21.87 21.87 0 0 0 4.19-1.898L755.208 1503.8a42.494 42.494 0 0 0-4.143 2M354.02 1307.905c-.426 0-.851-.012-1.275-.036l-.237-7.617a14.734 14.734 0 0 0 4.59-.253l.24 7.66a22.201 22.201 0 0 1-3.318.246m17.845-8.914l-6.501-4.006a14.719 14.719 0 0 0 2.348-3.954l6.518 4.016a22.224 22.224 0 0 1-2.365 3.944m-31.412-19.355l-6.497-4.003a22.221 22.221 0 0 1 2.449-3.892l6.521 4.018a14.67 14.67 0 0 0-2.473 3.877m11.14-8.663l-.237-7.621a22.42 22.42 0 0 1 4.596-.063l.238 7.658a14.795 14.795 0 0 0-4.597.026m-.381-12.23l-5.03-160.943a10.28 10.28 0 0 0 4.592-.23l.207 6.646c-.079.015-.157.028-.236.041l.292 1.746 4.77 152.664a27.376 27.376 0 0 0-4.596.076m260.594-51.103L346.919 640.52a36.75 36.75 0 0 0 4.154-1.973l264.875 567.096a21.793 21.793 0 0 0-4.144 1.997m-266.25-129.899l-.206-6.609a16.807 16.807 0 0 1 4.596-.081l.208 6.64a10.329 10.329 0 0 0-4.597.05m-.351-11.233l-13.227-423.321c.35.013.698.013 1.047.013 1.183 0 2.365-.053 3.548-.173l13.228 423.388a21.793 21.793 0 0 0-4.596.093M0 716.067v-7.987l191.025-271.307a15.558 15.558 0 0 0 3.511 3L0 716.067M56.944 212.147L0 159.48v-6.267L60.097 208.8a21.558 21.558 0 0 0-3.153 3.347"/><path fill="#f6f7f7" d="M0 649.76v-25.827l68.145-376.706c1.469.453 2.98.746 4.508.893L0 649.76m333.019-11.16c-.396 0-.791 0-1.186-.013l-.338-10.867c.497.04.997.053 1.497.053 1.032 0 2.068-.08 3.096-.226l.34 10.88c-1.135.12-2.273.173-3.41.173m-10.606-1.747a31.248 31.248 0 0 1-4.24-1.773l4.213-10.027a21.724 21.724 0 0 0 4.239 1.787l-4.212 10.013m22.557-.506l-4.601-9.854a22.315 22.315 0 0 0 4.144-1.986l4.61 9.866a32.038 32.038 0 0 1-4.153 1.974m-41.925-17.054a33.083 33.083 0 0 1-1.593-4.306l10.189-3.84c.37 1.466.895 2.906 1.583 4.306l-10.179 3.84m51.892-12.386c.079-1.534 0-3.067-.243-4.587l10.876-.453c.18 1.533.252 3.066.219 4.6l-10.852.44m15.453-.627a37.944 37.944 0 0 0-.214-4.6l309.897-12.707c.197 1.534.527 3.054.988 4.56L370.39 606.28m-51.93-17.027l-6.39-8.8a33.832 33.832 0 0 1 1.978-1.506c.579-.414 1.17-.8 1.765-1.16l6.4 8.813c-.652.36-1.29.773-1.916 1.213-.644.454-1.256.934-1.837 1.44m24.693-2.973a21.802 21.802 0 0 0-4.278-1.68l3.99-10.12a35.327 35.327 0 0 1 4.279 1.68l-3.99 10.12m-7.303-2.307a23.336 23.336 0 0 0-2.898-.186c-.565 0-1.132.026-1.698.066l.229-10.866c.481-.027.963-.027 1.444-.027 1.053 0 2.105.053 3.152.147l-.23 10.866M628.276 1242.908l-2.112-4.524a12.35 12.35 0 0 0 4.207-1.861l2.101 4.5a17.225 17.225 0 0 1-4.196 1.885m-12.395-26.54l-2.114-4.524a17.236 17.236 0 0 1 4.137-2.01l2.101 4.498a12.392 12.392 0 0 0-4.124 2.036m69.963-623.035a22.667 22.667 0 0 1-1.157-4.546l8.296-.347a14.6 14.6 0 0 0 1.778 4.533l-8.917.36m6.827-8.04l-8.063-2.6c.184-1.533.52-3.04 1.005-4.506l7.832 2.52a14.873 14.873 0 0 0-.774 4.586m-12.506-4.026L382.861 485.64l-34.026 86.24a35.851 35.851 0 0 0-4.279-1.68l33.919-85.973-40.252-12.947-2.046 97.213a44.113 44.113 0 0 0-3.254-.133c-.447 0-.895 0-1.343.027l2.075-98.574-116.451-37.466c.573-1.44.93-2.947 1.057-4.48l115.494 37.146 2.066-98.253-118.644 53.96a15.694 15.694 0 0 0-1.705-3.107c-.21-.306-.428-.586-.655-.866l121.111-55.094 3.319-157.746-242.022 21.586a22.408 22.408 0 0 0-.524-4.573l242.644-21.64L343.537 0h4.599l-4.183 198.88 152.466-13.6L569.519 0h4.942l-72.918 184.827 254.524-22.694a14.8 14.8 0 0 0-.26 4.64l-256.152 22.84-46.916 118.907 303.88-138.227a14.7 14.7 0 0 0 1.8 3.427c.144.213.293.413.445.6L450.311 314.68l-65.759 166.667 296.687 95.426a27.957 27.957 0 0 0-1.074 4.494m-235.88-263.854l-103.82 47.227-2.142 101.84 41.842 13.467 64.12-162.534m50.246-127.346l-150.675 13.426-3.284 156.054 106.143-48.28 47.816-121.2M309.364 576.733l-99.133-136.52a15.88 15.88 0 0 0 3.667-2.773l99.206 136.613a36.742 36.742 0 0 0-3.74 2.68m-116.637-162.04L84.9 245.827a21.765 21.765 0 0 0 2.818-1.694c.36-.253.71-.52 1.05-.786L196.636 412.28a15.07 15.07 0 0 0-2.831 1.587 21.02 21.02 0 0 0-1.077.826M73.475 243.587a17.968 17.968 0 0 1-4.505-.934l.872-4.813c1.432.587 2.956.907 4.497.96l-.864 4.787m8.935-1.654l-2.626-4.12c.865-.36 1.705-.826 2.503-1.386.485-.334.94-.707 1.363-1.094l2.63 4.107c-.387.333-.79.64-1.21.933a18.85 18.85 0 0 1-2.66 1.56m5.386-15.6a12.924 12.924 0 0 0-.62-4.56l4.897-.44c.385 1.507.568 3.04.556 4.56l-4.833.44m-23.88-7.746l-3.577-3.307a17.452 17.452 0 0 1 3.16-3.333l3.596 3.32a12.925 12.925 0 0 0-3.178 3.32"/><path fill="#e7e6e6" d="M770.444 179.96c-4.384 0-8.704-1.96-11.58-5.64a8.341 8.341 0 0 1-.445-.6 14.618 14.618 0 0 1-2.612-6.947 14.8 14.8 0 0 1 .26-4.64 14.64 14.64 0 0 1 5.892-8.893 14.695 14.695 0 0 1 20.485 3.533c4.679 6.64 3.095 15.814-3.54 20.494a14.658 14.658 0 0 1-8.46 2.693M333.024 643.2c-.35 0-.697 0-1.047-.013a37.87 37.87 0 0 1-11.35-2.08 37.963 37.963 0 0 1-4.24-1.774 37.152 37.152 0 0 1-14.006-11.973 37.567 37.567 0 0 1-5.245-10.747c-4.29-14.24.24-30.16 12.228-39.88a36.742 36.742 0 0 1 3.74-2.68 37.23 37.23 0 0 1 18.476-5.666c.448-.027.896-.027 1.343-.027 1.088 0 2.173.053 3.254.133 2.844.254 5.659.827 8.379 1.707a37.292 37.292 0 0 1 19.007 14 37.213 37.213 0 0 1 6.612 17.48c.165 1.533.236 3.067.214 4.6-.168 11.573-5.676 22.92-15.842 30.093-1.13.8-2.291 1.52-3.474 2.174a37.194 37.194 0 0 1-14.501 4.48c-1.183.12-2.365.173-3.548.173m-1.19-4.613c.394.013.789.013 1.185.013 1.136 0 2.274-.053 3.409-.173a32.643 32.643 0 0 0 8.541-2.08 32.525 32.525 0 0 0 6.928-3.733c8.844-6.24 13.67-16.08 13.891-26.147a32.655 32.655 0 0 0-5.983-19.613 32.655 32.655 0 0 0-12.661-10.694 35.327 35.327 0 0 0-4.279-1.68 33.658 33.658 0 0 0-6.785-1.373 35.497 35.497 0 0 0-3.152-.147c-.481 0-.963 0-1.444.027a32.564 32.564 0 0 0-15.67 4.8c-.597.36-1.187.746-1.766 1.16-.683.48-1.343.986-1.977 1.506-10.288 8.48-14.21 22.2-10.62 34.534a32.794 32.794 0 0 0 4.688 9.72 32.563 32.563 0 0 0 12.033 10.373 31.248 31.248 0 0 0 4.24 1.773 33.363 33.363 0 0 0 9.421 1.734"/><path fill="#e7e6e6" d="M332.992 627.773c-.5 0-1-.013-1.497-.053a22.387 22.387 0 0 1-4.871-.88 21.724 21.724 0 0 1-4.239-1.787 21.936 21.936 0 0 1-7.384-6.6 21.904 21.904 0 0 1-1.778-3 21.845 21.845 0 0 1-1.583-4.306c-1.968-7.84.519-16.374 6.82-21.894a22.542 22.542 0 0 1 1.837-1.44 21.896 21.896 0 0 1 12.656-4.027c.971 0 1.939.067 2.898.187 1.021.134 2.032.347 3.024.627 1.474.4 2.909.973 4.278 1.68a21.998 21.998 0 0 1 7.79 6.827 21.855 21.855 0 0 1 3.75 9.213c.243 1.52.322 3.053.243 4.587-.339 6.506-3.552 12.8-9.288 16.84-.373.266-.753.52-1.136.76a22.315 22.315 0 0 1-4.144 1.986 21.063 21.063 0 0 1-4.28 1.054 21.944 21.944 0 0 1-3.096.226M202.779 442.12c-.724 0-1.447-.04-2.163-.147a15.62 15.62 0 0 1-4.419-1.306c-.569-.254-1.124-.56-1.661-.894a15.558 15.558 0 0 1-3.51-3c-.34-.4-.663-.8-.967-1.24-4.686-6.64-3.434-15.693 2.668-20.84.344-.28.702-.56 1.077-.826a15.07 15.07 0 0 1 2.83-1.587 15.57 15.57 0 0 1 6.118-1.253 15.543 15.543 0 0 1 12.72 6.586c.7.987 1.267 2.04 1.705 3.107a15.528 15.528 0 0 1 1.084 7.147 15.612 15.612 0 0 1-4.364 9.573 15.88 15.88 0 0 1-3.666 2.773 15.384 15.384 0 0 1-7.452 1.907M0 749.373v-26.826c.183.24.363.493.539.733a22.449 22.449 0 0 1 2.38 4.333 21.942 21.942 0 0 1 1.292 4.427A22.06 22.06 0 0 1 0 749.373M365.593 1679.16c-8.872 0-17.613-4.16-23.105-11.947-5.184-7.346-6.352-16.346-3.959-24.36a28.6 28.6 0 0 1 1.67-4.293 28.113 28.113 0 0 1 4.642-6.787 28.917 28.917 0 0 1 4.447-3.893 28.25 28.25 0 0 1 13.3-5 30.763 30.763 0 0 1 2.93-.147c.555 0 1.111.014 1.665.054 8.289.48 16.29 4.6 21.437 11.893a28.08 28.08 0 0 1 4.77 11.613c1.714 10.36-2.433 21.28-11.567 27.72a28.887 28.887 0 0 1-3.39 2.054 28.669 28.669 0 0 1-4.248 1.76 28.323 28.323 0 0 1-8.592 1.333m-22.78-34.573c-1.842 6.6-.818 13.946 3.434 19.973 4.596 6.52 11.914 10 19.341 10 2.295 0 4.6-.32 6.839-1a23.259 23.259 0 0 0 6.745-3.307c7.515-5.293 10.997-14.213 9.755-22.746a23.445 23.445 0 0 0-4.064-10.173c-4.223-5.987-10.746-9.414-17.536-9.934a24.442 24.442 0 0 0-4.595.093 23.577 23.577 0 0 0-11.396 4.587 24.268 24.268 0 0 0-3.388 3.107 23.456 23.456 0 0 0-3.476 5.106 23.526 23.526 0 0 0-1.659 4.294"/><path fill="#e7e6e6" d="M365.568 1666.507a15.547 15.547 0 0 1-12.721-6.6 15.488 15.488 0 0 1-2.484-12.267 15.48 15.48 0 0 1 6.23-9.4c.07-.053.14-.093.211-.147a15.477 15.477 0 0 1 6.181-2.48 15.001 15.001 0 0 1 2.558-.213c.681 0 1.364.04 2.038.133a15.506 15.506 0 0 1 10.68 6.454 15.82 15.82 0 0 1 1.728 3.173c.584 1.453.935 2.96 1.062 4.48.445 5.307-1.859 10.72-6.534 14.013-.309.227-.625.427-.944.614-1.349.826-2.78 1.4-4.245 1.773a15.663 15.663 0 0 1-3.76.467M200.353 1823.707c-4.884 0-9.69-2.294-12.72-6.587-4.353-6.173-3.581-14.427 1.442-19.693a15.039 15.039 0 0 1 2.304-1.974 14.92 14.92 0 0 1 1.325-.84 15.377 15.377 0 0 1 7.623-2.013c4.884 0 9.692 2.293 12.72 6.587 4.493 6.373 3.526 14.96-1.94 20.186a16.525 16.525 0 0 1-1.806 1.494c-.629.44-1.28.826-1.946 1.173a15.53 15.53 0 0 1-7.002 1.667M263.01 1913.107c-6.587 0-13.078-3.094-17.155-8.88-6.004-8.507-4.755-20 2.466-27.054a20.483 20.483 0 0 1 2.579-2.146c.343-.24.69-.467 1.043-.694a20.912 20.912 0 0 1 11.009-3.133c6.59 0 13.079 3.093 17.156 8.867 6.215 8.813 4.659 20.813-3.255 27.8a21.145 21.145 0 0 1-3.761 2.64 20.846 20.846 0 0 1-10.081 2.6m-11.915-32.2c-5.245 5.533-6.047 14.2-1.484 20.666 3.183 4.52 8.25 6.934 13.392 6.934 2.488 0 4.995-.56 7.313-1.734.718-.36 1.416-.773 2.091-1.253.601-.427 1.164-.88 1.69-1.36 5.923-5.48 7.027-14.667 2.251-21.44-3.181-4.507-8.249-6.92-13.39-6.92-2.832 0-5.686.733-8.262 2.24-.389.227-.772.48-1.148.747a15.787 15.787 0 0 0-2.453 2.12"/><path fill="#e7e6e6" d="M262.99 1903.147a11.002 11.002 0 0 1-8.994-4.654c-2.881-4.093-2.588-9.453.372-13.186.637-.8 1.397-1.52 2.275-2.147.414-.293.842-.547 1.281-.773a10.958 10.958 0 0 1 5.047-1.227c3.453 0 6.853 1.613 8.996 4.653 3.098 4.4 2.522 10.28-1.095 14-.468.48-.987.92-1.555 1.32-.722.52-1.485.92-2.272 1.24-1.31.52-2.686.774-4.054.774M354.025 1312.503c-.378 0-.758-.008-1.137-.024-8.079-.339-15.92-4.284-20.93-11.388-5.975-8.474-6.366-19.235-1.933-27.879a26.85 26.85 0 0 1 8.427-9.688 26.794 26.794 0 0 1 15.501-4.92c.619 0 1.238.021 1.854.063 7.822.536 15.35 4.454 20.213 11.348 5.879 8.334 6.352 18.886 2.145 27.457a26.802 26.802 0 0 1-8.638 10.11 26.81 26.81 0 0 1-15.502 4.92m-1.281-4.633a22.562 22.562 0 0 0 4.593-.21 22.221 22.221 0 0 0 9.54-3.834 22.224 22.224 0 0 0 7.352-8.779c3.286-7.035 2.82-15.594-1.966-22.38-3.939-5.583-9.987-8.815-16.312-9.377a22.555 22.555 0 0 0-4.596.063c-3.58.42-7.106 1.71-10.252 3.93a22.284 22.284 0 0 0-7.148 8.351c-3.508 7.114-3.123 15.883 1.76 22.808 4.086 5.794 10.448 9.055 17.029 9.428"/><path fill="#e7e6e6" d="M354.001 1300.327a14.739 14.739 0 0 1-12.084-6.259c-3.088-4.377-3.461-9.856-1.465-14.432a14.67 14.67 0 0 1 5.023-6.155 14.707 14.707 0 0 1 10.714-2.534 14.728 14.728 0 0 1 9.872 6.092c2.99 4.238 3.435 9.508 1.65 13.992a14.719 14.719 0 0 1-5.208 6.594 14.732 14.732 0 0 1-8.502 2.702M771.048 1582.96c-12.94 0-25.687-6.067-33.695-17.413a41.17 41.17 0 0 1-5.461-10.854 40.724 40.724 0 0 1-1.188-4.44c-1.959-9.413-.541-19.266 3.939-27.746a40.84 40.84 0 0 1 12.624-14.32 40.276 40.276 0 0 1 3.798-2.387 40.908 40.908 0 0 1 19.867-5.133c12.94 0 25.687 6.08 33.695 17.426 7.782 11.04 9.361 24.614 5.456 36.56a40.35 40.35 0 0 1-1.671 4.28 40.87 40.87 0 0 1-10.716 14.214 44.149 44.149 0 0 1-3.66 2.773 40.892 40.892 0 0 1-22.988 7.04m-34.71-29.467a36.515 36.515 0 0 0 4.774 9.4c7.112 10.08 18.437 15.48 29.93 15.48a36.365 36.365 0 0 0 20.162-6.093c.29-.187.575-.387.86-.587a36.005 36.005 0 0 0 2.805-2.186 36.222 36.222 0 0 0 9.243-12.227 35.366 35.366 0 0 0 1.673-4.28c3.38-10.56 1.951-22.52-4.916-32.253-7.112-10.094-18.436-15.48-29.929-15.48-4.657 0-9.34.88-13.784 2.706a36.542 36.542 0 0 0-4.14 2 39.444 39.444 0 0 0-3.099 1.96 36.588 36.588 0 0 0-8.98 9.054 36.787 36.787 0 0 0-5.787 28.067c.3 1.493.695 2.973 1.189 4.44"/><path fill="#e7e6e6" d="M771.008 1563.813c-6.908 0-13.705-3.24-17.99-9.32a22.22 22.22 0 0 1-2.573-4.813 22 22 0 0 1-1.184-4.44 22.111 22.111 0 0 1 1.759-12.64 21.718 21.718 0 0 1 2.35-3.947 21.593 21.593 0 0 1 4.945-4.8c.297-.213.597-.413.9-.613a22.265 22.265 0 0 1 4.121-2.04 21.923 21.923 0 0 1 7.636-1.373c6.907 0 13.705 3.24 17.988 9.32 3.968 5.626 4.924 12.466 3.201 18.613a22.002 22.002 0 0 1-1.694 4.28 21.965 21.965 0 0 1-4.566 5.947c-.696.64-1.442 1.24-2.237 1.8-.476.333-.959.653-1.45.946a21.85 21.85 0 0 1-11.206 3.08M1135.721 2032.773c-2.557 0-5.1-.44-7.505-1.306a22.213 22.213 0 0 1-4.136-2 21.973 21.973 0 0 1-6.348-6.014c-6.29-8.906-5.015-20.893 2.51-28.306.85-.84 1.78-1.627 2.786-2.334.265-.186.533-.36.803-.533a21.803 21.803 0 0 1 11.853-3.493c6.907 0 13.705 3.253 17.99 9.32.51.733.971 1.466 1.383 2.24a21.545 21.545 0 0 1 1.751 4.24c2.579 8.786-.537 18.6-8.432 24.173a22.462 22.462 0 0 1-4.484 2.44c-1.443.573-2.927 1-4.425 1.253-1.243.214-2.496.32-3.746.32M944.225 1777.68c-3.9 0-7.737-1.827-10.154-5.253-3.395-4.814-2.886-11.2.874-15.414a12.532 12.532 0 0 1 2.115-1.893 12.369 12.369 0 0 1 7.144-2.267c3.899 0 7.737 1.84 10.156 5.267 3.37 4.773 2.89 11.12-.801 15.333a12.354 12.354 0 0 1-2.19 1.96c-.461.334-.938.614-1.426.867-1.807.947-3.771 1.4-5.718 1.4M351.504 1108.793l-.468-2.79-.292-1.746a16.666 16.666 0 0 0 6.893-2.84l1.998 2.56.704 1.162c-2.698 1.901-5.652 3.118-8.835 3.654m-9.479-.554a21.529 21.529 0 0 1-8.31-4.6l3.069-3.423a16.823 16.823 0 0 0 6.521 3.604l-1.28 4.419m24.74-10.342l-4.046-2.185a17.023 17.023 0 0 0 2.009-7.184l4.592.232a21.635 21.635 0 0 1-2.555 9.137m-38.548-2a21.484 21.484 0 0 1-1.596-9.36l4.594.25a16.78 16.78 0 0 0 1.25 7.344l-4.248 1.766m35.215-14.706a17.06 17.06 0 0 0-4.347-6.062l3.047-3.44a21.524 21.524 0 0 1 5.536 7.716l-4.236 1.786m-30.165-1.575l-4.032-2.21a21.177 21.177 0 0 1 6.318-7.097l2.674 3.742a16.59 16.59 0 0 0-4.96 5.565m19.272-8.05a16.952 16.952 0 0 0-4.602-.634 16.807 16.807 0 0 0-2.844.243l-.778-4.534a21.469 21.469 0 0 1 5.485-.227c1.35.117 2.688.358 3.99.725l-1.251 4.426M347.979 1097.957a10.28 10.28 0 0 1-1.798-.157 10.211 10.211 0 0 1-6.588-4.185c-3.262-4.627-2.157-11.022 2.468-14.286a10.26 10.26 0 0 1 3.494-1.588 10.329 10.329 0 0 1 4.597-.05 10.218 10.218 0 0 1 6.195 4.108c3.262 4.626 2.157 11.021-2.468 14.285a10.247 10.247 0 0 1-3.106 1.485 10.25 10.25 0 0 1-2.794.388M623.37 1248.215c-6.895 0-13.686-3.234-17.953-9.283-6.969-9.881-4.6-23.59 5.282-30.56a21.793 21.793 0 0 1 12.608-4.001c6.894 0 13.686 3.233 17.953 9.282 6.968 9.882 4.6 23.59-5.283 30.56a21.943 21.943 0 0 1-5.738 2.898 21.863 21.863 0 0 1-6.87 1.104m-9.602-36.371c-.14.092-.279.188-.418.285-7.808 5.507-9.682 16.343-4.173 24.154 3.37 4.78 8.739 7.336 14.187 7.336a17.225 17.225 0 0 0 9.965-3.163c7.808-5.507 9.683-16.343 4.175-24.153-3.372-4.78-8.742-7.336-14.188-7.336a17.236 17.236 0 0 0-9.548 2.877"/><path fill="#e7e6e6" d="M623.35 1238.708a12.402 12.402 0 0 1-10.157-5.26c-3.88-5.501-2.66-13.065 2.688-17.08.099-.073.2-.148.302-.22a12.392 12.392 0 0 1 7.144-2.27c3.898 0 7.737 1.831 10.154 5.26 3.952 5.602 2.614 13.349-2.988 17.3a12.35 12.35 0 0 1-7.144 2.27M1053.564 1667.64c-5.441 0-10.797-2.56-14.17-7.333a17.309 17.309 0 0 1-2.786-13.614 17.258 17.258 0 0 1 6.956-10.533 17.284 17.284 0 0 1 9.97-3.16c5.44 0 10.795 2.547 14.17 7.333 3.067 4.347 3.85 9.614 2.597 14.387-.389 1.48-.974 2.92-1.748 4.267a17.246 17.246 0 0 1-5.02 5.48 17.205 17.205 0 0 1-9.969 3.173M1186.512 1714.04c-3.847 0-7.635-1.8-10.02-5.187a12.234 12.234 0 0 1-2.059-9.16 12.213 12.213 0 0 1 1.62-4.293 12.098 12.098 0 0 1 3.388-3.613 12.15 12.15 0 0 1 7.051-2.24c3.847 0 7.633 1.8 10.019 5.186a12.204 12.204 0 0 1 2.03 9.307 12.16 12.16 0 0 1-1.676 4.28 12.13 12.13 0 0 1-3.304 3.48 12.143 12.143 0 0 1-7.049 2.24M1192.5 2160h-26.343a13.333 13.333 0 0 1 5.495-12.88 12.747 12.747 0 0 1 2.167-1.24 13.215 13.215 0 0 1 5.498-1.187c4.184 0 8.303 1.96 10.898 5.64a13.261 13.261 0 0 1 2.285 9.667M1550.813 1863.92c-6.906 0-13.706-3.253-17.986-9.32-.174-.253-.347-.507-.52-.773a21.618 21.618 0 0 1-2.08-4.107 16.373 16.373 0 0 1-.36-1.053l42.08-12.787c2.493 8.747-.627 18.48-8.48 24.013a21.854 21.854 0 0 1-12.654 4.027m-21.893-19.773a22.079 22.079 0 0 1 2.267-12.187 21.97 21.97 0 0 1 19.586-12.027c6.907 0 13.707 3.24 18 9.32.534.76 1.014 1.547 1.454 2.36l-41.307 12.534M74.81 248.227a19.43 19.43 0 0 1-2.157-.107 22.345 22.345 0 0 1-16.22-9.4c-5.79-8.2-5.287-18.987.51-26.573a21.558 21.558 0 0 1 3.154-3.347 21.31 21.31 0 0 1 1.74-1.36 22.304 22.304 0 0 1 12.91-4.107c7.06 0 14.013 3.32 18.382 9.507a22.319 22.319 0 0 1 4.096 12.653c.078 6.734-2.865 13.4-8.455 17.854-.34.266-.69.533-1.051.786a22.378 22.378 0 0 1-12.908 4.093m-1.336-4.64c.443.027.887.04 1.332.04 2.581 0 5.18-.546 7.603-1.693a18.85 18.85 0 0 0 2.66-1.56c.42-.293.823-.6 1.21-.933 4.107-3.453 6.309-8.453 6.349-13.547.012-1.52-.171-3.053-.556-4.56a17.708 17.708 0 0 0-2.702-5.84c-3.474-4.92-9.004-7.56-14.617-7.56a17.763 17.763 0 0 0-10.268 3.254c-.34.24-.669.493-.987.76a17.452 17.452 0 0 0-3.16 3.333c-4.366 6.013-4.666 14.387-.15 20.8a17.78 17.78 0 0 0 8.781 6.573c1.457.507 2.972.814 4.505.934"/><path fill="#e7e6e6" d="M74.791 238.813c-.15 0-.301 0-.452-.013a13.048 13.048 0 0 1-4.497-.96 12.966 12.966 0 0 1-5.709-4.547c-3.185-4.52-3.094-10.36-.216-14.706a12.925 12.925 0 0 1 3.178-3.32c.058-.04.117-.094.176-.134a13.028 13.028 0 0 1 7.498-2.373c4.09 0 8.118 1.92 10.656 5.52a12.778 12.778 0 0 1 1.752 3.493 13.051 13.051 0 0 1-3.527 13.56c-.423.387-.878.76-1.363 1.094a13.195 13.195 0 0 1-2.503 1.386c-1.609.667-3.306 1-4.993 1M707.413 612.947c-8.656 0-17.184-4.067-22.541-11.667a27.235 27.235 0 0 1-3.812-7.747 27.571 27.571 0 0 1-.988-4.56 27.772 27.772 0 0 1 1.167-12.2 27.383 27.383 0 0 1 10.264-13.853 27.344 27.344 0 0 1 15.832-5.027c8.656 0 17.182 4.054 22.54 11.654 8.749 12.413 5.776 29.626-6.632 38.373a27.435 27.435 0 0 1-15.83 5.027m-21.569-19.614a23.04 23.04 0 0 0 2.785 5.307c4.463 6.32 11.567 9.707 18.776 9.707 4.57 0 9.179-1.36 13.188-4.187 10.336-7.293 12.814-21.627 5.523-31.96-4.463-6.333-11.565-9.707-18.775-9.707-4.569 0-9.18 1.347-13.189 4.187a22.808 22.808 0 0 0-8.539 11.507 23.086 23.086 0 0 0-.926 10.6c.225 1.533.61 3.066 1.157 4.546"/><path fill="#e7e6e6" d="M707.385 600.12a14.7 14.7 0 0 1-12.026-6.227c-.212-.306-.411-.613-.598-.92a14.648 14.648 0 0 1-2.09-7.68c.016-1.56.277-3.106.774-4.586a14.637 14.637 0 0 1 5.454-7.307 14.643 14.643 0 0 1 8.46-2.68c4.617 0 9.162 2.16 12.026 6.227 4.679 6.626 3.095 15.8-3.54 20.48a14.658 14.658 0 0 1-8.46 2.693"/><path fill="#f6f7f7" d="M3049.254 2160h-6.122c-.114-.293-.229-.6-.343-.92-.161-.427-.299-.866-.413-1.307l5.067-1.933c.091.493.229.973.39 1.453a11.89 11.89 0 0 0 1.42 2.707m-11.004 0h-1.674l1.49-.573c.07.2.115.386.184.573m-312.817 0h-5.8l115.254-149.214a27.847 27.847 0 0 0 3.668 2.76L2725.432 2160m-206.298 0h-10.271l318.663-159.614a25.446 25.446 0 0 0 2.087 4.094L2519.134 2160m-146.756 0h-7.382l-76.673-60.893-48.227 44.493 30.335 16.4h-9.669l-24.238-13.093-14.201 13.093h-6.787l16.707-15.414-373.8-201.973 12.866 146.894a21.471 21.471 0 0 0-2.065-.093c-.855 0-1.695.052-2.547.146l-13.094-149.574-211-113.999a16 16 0 0 0 2.453-3.907l208.065 112.427-13.852-158.214a35.35 35.35 0 0 0 4.574-.374l14.12 161.2 377.855 204.174 48.866-45.08-418.347-332.308a37.03 37.03 0 0 0 2.852-3.613l418.907 332.761 189.15-174.52a28.96 28.96 0 0 0 3.119 3.4l-188.614 174.013 80.627 64.054m-340.776 0h-15.586l-126.906-39.187a21.856 21.856 0 0 0 1.534-4.333l140.958 43.52m1037.53-7.533a11.047 11.047 0 0 0-.573-2.534 10.498 10.498 0 0 0-.849-1.853l5.044-1.934c.321.64.62 1.307.871 2 .276.774.482 1.56.642 2.347l-5.135 1.974m9.469-3.627c-.16-.747-.39-1.494-.642-2.227a16.83 16.83 0 0 0-.895-2.12l658.328-252c.115.32.207.627.321.948.39 1.146.871 2.251 1.399 3.32L3078.6 2148.84m-1231.358-37.268l-631.64-95.24a15.546 15.546 0 0 0 1.38-4.44l630.714 95.093a21.783 21.783 0 0 0-.454 4.587m1.16-7.187l-425.32-206.706 5.76-2.306 421.465 204.826a22.815 22.815 0 0 0-1.905 4.186"/><path fill="#ecefee" d="M1423.08 1897.68l-1.32-.64a22.786 22.786 0 0 0 2.093-4.093l4.987 2.426-5.76 2.307"/><path fill="#f6f7f7" d="M1853.986 2095.56l-216.539-265.653a15.156 15.156 0 0 0 3.828-2.572l216.343 265.399a20.247 20.247 0 0 0-3.632 2.826m987.37-85.666a23.594 23.594 0 0 1-3.668-2.747l4.96-6.427a15.567 15.567 0 0 0 3.701 2.734l-4.994 6.44m-1625.894-7.387a15.541 15.541 0 0 0-2.672-3.747l78.135-48.012 25.326-10.174-100.789 61.933m98.706-66.054l68.415-42.038a22.075 22.075 0 0 0 2.373 3.946l-45.466 27.933-25.322 10.16"/><path fill="#ecefee" d="M1290.93 1950.747l23.24-14.294 25.323-10.16-23.238 14.28-25.326 10.174"/><path fill="#f6f7f7" d="M2833.721 2002.414a24.422 24.422 0 0 1-2.084-4.094l7.262-3.64c.046.08.069.16.092.24a16.023 16.023 0 0 0 2.016 3.853l-7.286 3.64m35.488-12.253c.023-1.507-.138-3.04-.573-4.56l8.087-.96c.344 1.52.527 3.053.55 4.56l-8.064.96m12.646-1.493c-.046-1.52-.23-3.04-.527-4.56l852.59-100.693c0 1.519.138 3.054.39 4.586l-852.453 100.667m-43.666-.614l-7.881-1.946c.229-1.52.618-3.014 1.145-4.454l7.904 1.947c-.618 1.413-.985 2.907-1.168 4.453m-12.372-3.053l-301.493-74.48a24.8 24.8 0 0 0 1.053-4.48l301.609 74.507c-.527 1.453-.894 2.933-1.169 4.453m30.768-10.56a16.579 16.579 0 0 0-2.932-.28c-.55 0-1.123.04-1.672.093l.068-8.107a21.06 21.06 0 0 1 1.581-.053c1.008 0 2.016.067 3.001.187l-.046 8.16m.115-12.773a26.085 26.085 0 0 0-3.07-.174c-.504 0-1.03.014-1.535.04l.962-104.853 2.245-245.733c.917.066 1.856.094 2.795.094.596 0 1.192-.014 1.787-.042l-3.184 350.668m-372.95-42.867a21.51 21.51 0 0 1-3.093-3.413l5.636-5.187a14.321 14.321 0 0 0 3.07 3.427l-5.613 5.173m36.106-9.386l-7.4-1.828c.55-1.427.894-2.932 1.008-4.493l7.423 1.84a21.417 21.417 0 0 1-1.03 4.481m-35.832-8.854l-7.4-1.826c.23-1.522.619-3.015 1.169-4.44l7.445 1.826a14.142 14.142 0 0 0-1.214 4.44m-11.867-2.933l-156.337-38.615a10.4 10.4 0 0 0 1.03-4.492l6.439 1.599c0 .08 0 .16-.023.24l1.764.188 148.272 36.626a27.038 27.038 0 0 0-1.145 4.454m-1083.263-1.693a17.93 17.93 0 0 1-2.36-3.947l4.172-2.562a13.09 13.09 0 0 0 2.348 3.961l-4.16 2.548m28.612-.96l-4.319-2.094a13.352 13.352 0 0 0 2.147-4.08l4.36 2.119a17.817 17.817 0 0 1-2.028 3.989l-.16.066"/><path fill="#ecefee" d="M1417.587 1895.013l-.08-.04.16-.066c-.027.04-.054.066-.08.106"/><path fill="#f6f7f7" d="M2510.862 1893.786a14.577 14.577 0 0 0-3.177-3.333l5.624-5.187a21.457 21.457 0 0 1 3.16 3.333l-5.607 5.187m9.01-8.306a25.646 25.646 0 0 0-3.16-3.347l309.787-285.827a42.666 42.666 0 0 0 3.16 3.36L2519.87 1885.48m-1104.028-2.188a12.314 12.314 0 0 0-.655-2.786c-.2-.56-.427-1.094-.692-1.6l4.68-1.427c.2.467.4.934.559 1.414.361.986.615 1.986.788 2.986l-4.68 1.413m9.107-2.76a23.032 23.032 0 0 0-.88-3.173c-.148-.413-.294-.827-.467-1.226l105.319-31.987c.147 1.52.467 3.04.947 4.52l-104.92 31.866m147-44.653a21.696 21.696 0 0 0-1.72-4.267l45.16-13.72c.134 1.054.387 2.108.76 3.16.147.427.32.854.508 1.253l-44.707 13.574"/><path fill="#e2e2e2" d="M1529.867 1848.667c-.48-1.48-.8-3-.947-4.52l41.307-12.534a21.652 21.652 0 0 1 1.72 4.267l-42.08 12.787"/><path fill="#f6f7f7" d="M1406.947 1872.48a12.872 12.872 0 0 0-4.04-.64h-.507l.893-4.827c1.547.04 3.08.267 4.547.694l-.893 4.773m1.746-9.307c-1.48-.4-3-.64-4.546-.733l12.96-69.413 4.36 1.68-12.774 68.466m231.574-59.666a15.957 15.957 0 0 0-4.04-2.227l66.96-101.173-94.054-28.52 19.934 128.813c-1.16.12-2.32.387-3.467.8-.347.12-.68.253-1 .387l-20.347-131.48-150.986-45.787-30.947 165.787-4.36-1.68 30.88-165.454-342.515-103.88c.086-.2.168-.426.248-.64l-4.309-1.6a25.6 25.6 0 0 1-.36.907l-7.756-2.347a14.85 14.85 0 0 0 1.36-4.4l354.172 107.414 28.08-150.48-168.408-127.814a20.387 20.387 0 0 0 2.744-3.693l166.61 126.453 46.88-251.197a14.758 14.758 0 0 0 4.4 1.503L1482.8 1466l101.84 77.293-51.04-329.925a14.794 14.794 0 0 0 4.48-1.072l51.827 334.997 142.72 108.32 172-259.906a27.728 27.728 0 0 0 4.026 2.253l-172.36 260.44 73.854 56.04c-1 1.173-1.92 2.4-2.774 3.667l-73.613-55.867-23.333 35.253 93.053 28.227a37.977 37.977 0 0 0-1.36 4.387l-94.347-28.614-67.506 102.014m-49.347-249.68l17.44 112.72 97.467 29.56 24.253-36.654-139.16-105.626m-109.053-82.76l-27.76 148.706 149.36 45.294-17.827-115.24-103.773-78.76"/><path fill="#ecefee" d="M1421.467 1794.707l-4.36-1.68.853-4.6 4.36 1.68-.853 4.6"/><path fill="#f6f7f7" d="M2296.336 1854.2l-6.414-1.587c.173-1.52.573-3.028 1.16-4.453l6.455 1.599a10.23 10.23 0 0 0-1.2 4.441m-10.908-2.692l-411.173-101.576a37.209 37.209 0 0 0 1.094-4.467l411.227 101.587a22.237 22.237 0 0 0-1.148 4.456m-639.48-39.163a15.485 15.485 0 0 0-.493-1.693 15.378 15.378 0 0 0-1.187-2.587l158.333-58.626c.187.641.4 1.293.626 1.948.294.798.6 1.598.935 2.373l-158.215 58.585m192.909-40.639l-.949-10.853c.201.014.4.014.602.014 1.318 0 2.653-.12 3.985-.375l.946 10.842a31.552 31.552 0 0 1-4.584.372m23.879-10.666l-8.52-6.773a21.367 21.367 0 0 0 2.852-3.602l8.52 6.762a35.32 35.32 0 0 1-2.852 3.613m-54.254-8.88a36.648 36.648 0 0 1-.921-2.32 28.203 28.203 0 0 1-.638-2.013l10.212-3.775c.174.722.4 1.455.653 2.174.268.734.562 1.453.895 2.16l-10.201 3.774m61.307-3.334l-10.546-2.614a23.094 23.094 0 0 0 1.08-4.466l10.56 2.614c-.268 1.52-.627 3-1.094 4.466m-9.334-11.48a22.4 22.4 0 0 0-.8-4.534l10.747-1.772c.375 1.506.627 3.026.786 4.534l-10.733 1.772m15.281-2.52a38.248 38.248 0 0 0-.786-4.533l617.537-101.906c.116 1.505.394 3.025.833 4.52l-617.584 101.92m-58.8-.227l-10.4-3.148a31.238 31.238 0 0 1 1.358-4.4l10.4 3.16c-.599 1.4-1.052 2.88-1.358 4.388m2.772-7.134l-8.666-6.574a34.066 34.066 0 0 1 2.786-3.666l8.653 6.574a22.296 22.296 0 0 0-2.773 3.666m25.815-9.44a21.24 21.24 0 0 0-4.48-1l2.507-10.6c1.52.24 3.012.587 4.478 1.026l-2.505 10.574m3.56-15.052a38.473 38.473 0 0 0-4.48-1.027l71.452-301.828c1.307.2 2.64.293 3.974.293h.68l-71.626 302.562m1914.677-49.72l-5.297-4.534a19.573 19.573 0 0 1 2.822-3.627l5.205 4.453a13.48 13.48 0 0 0-2.73 3.708m2.891-3.854l-3.84-5.707a19.67 19.67 0 0 1 3.864-2.521l3.863 5.76a13.356 13.356 0 0 0-3.887 2.468m-11.704-3.694l-332.016-284.132a23.19 23.19 0 0 0 3.054-3.442l331.807 283.96a23.662 23.662 0 0 0-2.845 3.614m5.274-5.853l-192.066-285.161a13.112 13.112 0 0 0 3.585-2.933l192.344 285.573a26.646 26.646 0 0 0-3.863 2.521m-1262.344-7.694a17.307 17.307 0 0 1-.81-4.533l4.904-.8c0 1.373.209 2.787.718 4.175.023.106.069.224.138.344l-4.95.814m28.915-4.774c.07-1.506-.139-3.04-.67-4.546l4.903-.814c.44 1.508.648 3.042.694 4.548l-4.927.812m9.484-1.56a20.73 20.73 0 0 0-.694-4.558l281.611-46.468c.162 1.52.44 3.028.787 4.534l-281.704 46.493m321.815-19.387c-.926 0-1.828-.04-2.753-.107l.139-14.612c.856.106 1.712.16 2.59.16.648 0 1.342-.04 2.013-.093l-.139 14.612c-.624.026-1.226.04-1.85.04m-25.052-9.905a35.041 35.041 0 0 1-3.146-3.348l10.733-9.907a21.677 21.677 0 0 0 3.169 3.333l-10.756 9.922m-10.502-17.949a34.469 34.469 0 0 1-.81-4.533l14.411-2.374c.116 1.508.394 3.014.856 4.522l-14.457 2.385m56.766-14.413a25.234 25.234 0 0 0-.532-1.652 21.667 21.667 0 0 0-1.134-2.642l13.533-5.519a38.01 38.01 0 0 1 1.341 3.294c.116.333.232.652.324.986l-13.532 5.533m17.812-7.28c-.093-.252-.185-.52-.278-.773a36.014 36.014 0 0 0-1.411-3.506l212.376-86.76c.116.572.278 1.145.486 1.719.324.907.74 1.76 1.226 2.547l-212.4 86.773m-23.964-3.012a21.495 21.495 0 0 0-3.655-2.787l8.72-11.707a41.14 41.14 0 0 1 3.679 2.773l-8.744 11.721m11.496-15.415a40.984 40.984 0 0 0-3.678-2.76l146.033-195.92a16.998 16.998 0 0 0 3.771 2.654l-146.126 196.026m-1811.48-42.013l-57.446-125.76c.421-.106.842-.24 1.261-.386a14.064 14.064 0 0 0 2.963-1.441l57.458 125.802c-.455.106-.911.238-1.362.4-1.025.372-1.987.84-2.873 1.385m2058.97-35.572a13.761 13.761 0 0 0-.463-1.6 11.249 11.249 0 0 0-1.295-2.64l256.674-104.867c.093.305.185.613.3.92a25.034 25.034 0 0 0 1.481 3.306l-256.697 104.88m-1212.121-65.068c-.974 0-1.934-.053-2.894-.185l1.906-8.08c.321.026.654.04.974.04 1.281 0 2.586-.174 3.867-.52l-2.054 8.68c-.599.054-1.2.065-1.8.065m-8.787-1.746a23.924 23.924 0 0 1-4.067-2.186l4.548-6.868a14.741 14.741 0 0 0 4.2 1.987l-4.681 7.067m1518.735-46.493c.162-1.52.162-3.054-.023-4.599l118.622-2.454a12.797 12.797 0 0 0-.093 4.6l-118.506 2.453m-2426.267-3.2l-10.92-23.911a6.204 6.204 0 0 0 4.145-1.992l10.92 23.903c-.23.067-.46.148-.689.226a14.218 14.218 0 0 0-3.456 1.775m301.967-7.04l-5.975-4.536a8.47 8.47 0 0 0 2.704-3.72l6.008 4.562a15.828 15.828 0 0 1-2.737 3.694m2097.583-13.444l-43.72-401.911a21.99 21.99 0 0 0 4.534-.893l43.766 402.263a21.95 21.95 0 0 0-4.58.541m-2116.588-.98l-5.973-4.535a15.938 15.938 0 0 1 2.813-3.636l6.012 4.564a8.457 8.457 0 0 0-2.852 3.606m-9.66-7.333l-151.944-115.318a8.455 8.455 0 0 0 2.681-3.733l152.066 115.408a20.485 20.485 0 0 0-2.803 3.643m1774.223-.571a17.544 17.544 0 0 0-3.632-2.834l67.708-90.842a12.35 12.35 0 0 0 3.724 2.723l-67.8 90.953m-2063.29-5.147l-12.273-26.872c.028-.01.053-.021.08-.03a17.752 17.752 0 0 0 4.03-2.034l12.383 27.106a6.271 6.271 0 0 0-1.892.357 6.177 6.177 0 0 0-2.327 1.473m-14.196-31.08l-2.536-5.547a7.12 7.12 0 0 0 3.997-2.316l2.626 5.742a13.145 13.145 0 0 1-3.62 1.966c-.155.053-.31.106-.467.155m-8.326-18.226l-2.535-5.547a13.188 13.188 0 0 1 4.282-1.698l2.62 5.741a7.137 7.137 0 0 0-2.368.414 7.132 7.132 0 0 0-1.999 1.09m-4.455-9.755l-118.45-259.313a8.607 8.607 0 0 0 4.249-1.765l118.455 259.325c-.451.12-.902.261-1.349.42-1.024.362-1.996.81-2.905 1.333m2172.431-46.017a12.644 12.644 0 0 0-3.678-2.769l212.978-285.744a22.827 22.827 0 0 0 3.7 2.737l-213 285.776m-2021.383-14.425l-8.202-6.227a7.16 7.16 0 0 0 2.688-3.729l8.387 6.366a8.467 8.467 0 0 0-2.873 3.59m-19.09-14.492L859.33 998.587c.837-.965 1.6-1.994 2.272-3.082l-3.905-2.42a19.26 19.26 0 0 1-2.04 2.714l-8.483-6.438a8.514 8.514 0 0 0 2.464-3.897l246.14 186.805a7.163 7.163 0 0 0-2.867 3.593"/><path fill="#e7e6e6" d="M1532.467 1213.412a14.758 14.758 0 0 1-6.88-1.716 14.618 14.618 0 0 1-6.974-8.073c-2.706-7.654 1.294-16.055 8.947-18.77 1.627-.576 3.28-.849 4.907-.849 6.053 0 11.72 3.763 13.853 9.79 2.64 7.415-1.04 15.538-8.24 18.502a14.794 14.794 0 0 1-5.613 1.116M1838.547 1776.307c-14.6 0-28.347-8.614-34.387-22.547a46.15 46.15 0 0 1-.933-2.373 41.017 41.017 0 0 1-.627-1.947 37.244 37.244 0 0 1-.48-19.333c.373-1.494.813-2.96 1.36-4.387 1-2.68 2.307-5.227 3.893-7.613a40.691 40.691 0 0 1 2.774-3.667 37.285 37.285 0 0 1 15.853-10.853 37.465 37.465 0 0 1 12.48-2.147c2.067 0 4.107.173 6.12.507 1.52.253 3.013.6 4.48 1.026 11.107 3.294 20.547 11.654 24.707 23.387a35.679 35.679 0 0 1 1.16 3.933c.36 1.507.613 3.014.786 4.534.387 3.586.24 7.173-.386 10.64-.267 1.506-.64 3-1.094 4.466a37.582 37.582 0 0 1-5.066 10.36 36.9 36.9 0 0 1-2.854 3.614 37.26 37.26 0 0 1-15.306 10.24 37.718 37.718 0 0 1-7.187 1.773c-1.52.227-3.053.347-4.573.373-.24.014-.48.014-.72.014m-30.067-24.147c5.347 12.093 17.333 19.547 30.067 19.547h.306a31.288 31.288 0 0 0 4.587-.374c2.027-.306 4.04-.8 6.04-1.52a32.57 32.57 0 0 0 13.253-8.773 35.378 35.378 0 0 0 2.854-3.613 33.21 33.21 0 0 0 4.2-8.6 34.1 34.1 0 0 0 1.093-4.467c.493-2.867.6-5.827.307-8.787a33.61 33.61 0 0 0-.787-4.533 33.979 33.979 0 0 0-.947-3.147c-3.613-10.2-11.786-17.506-21.426-20.44a34.079 34.079 0 0 0-4.48-1.026 32.06 32.06 0 0 0-5.067-.4c-3.64 0-7.333.613-10.947 1.893a32.662 32.662 0 0 0-13.706 9.307 33.608 33.608 0 0 0-2.787 3.666c-1.253 1.934-2.32 4-3.147 6.16a31.127 31.127 0 0 0-1.36 4.4 32.672 32.672 0 0 0 .387 16.374c.187.68.4 1.346.64 2.013.28.787.587 1.56.92 2.32"/><path fill="#e7e6e6" d="M1838.507 1760.867c-.2 0-.4 0-.6-.014-8.08-.213-15.614-4.906-19.227-12.466a25.38 25.38 0 0 1-.893-2.16 21.792 21.792 0 0 1-.853-11.627 22.61 22.61 0 0 1 1.36-4.387 22.267 22.267 0 0 1 4.187-6.413 21.926 21.926 0 0 1 8.679-5.653 21.81 21.81 0 0 1 7.347-1.28c.853 0 1.693.053 2.533.16 1.533.173 3.04.506 4.48 1 6.173 2.08 11.373 6.88 13.72 13.493.147.427.28.867.413 1.293a21.994 21.994 0 0 1 .667 8.933 22.982 22.982 0 0 1-1.08 4.467 22.207 22.207 0 0 1-2.173 4.454 21.171 21.171 0 0 1-2.854 3.6 21.954 21.954 0 0 1-8.346 5.333c-1.12.387-2.254.693-3.374.893a21.34 21.34 0 0 1-3.986.374M1630.8 1831.4c-5.96 0-11.573-3.453-14.147-9.093-.186-.4-.36-.827-.506-1.254a15.13 15.13 0 0 1-.76-3.16c-.907-6.786 2.773-13.506 9.213-16.306.32-.134.653-.267 1-.387a14.661 14.661 0 0 1 3.467-.8 15.12 15.12 0 0 1 1.733-.107c1.867 0 3.707.347 5.427.987 1.44.533 2.8 1.293 4.04 2.227a15.69 15.69 0 0 1 4 4.56c.466.813.866 1.666 1.186 2.586.2.56.36 1.12.494 1.694a15.434 15.434 0 0 1-.894 9.733 15.918 15.918 0 0 1-2.453 3.907c-.413.466-.853.92-1.32 1.346a15.173 15.173 0 0 1-3.827 2.574c-.466.226-.96.426-1.453.6-1.72.613-3.48.893-5.2.893M1869.24 2133.4c-9.053 0-17.533-5.627-20.733-14.64a21.892 21.892 0 0 1-.814-11.774c.174-.88.414-1.76.707-2.6a22.806 22.806 0 0 1 1.907-4.186 22.035 22.035 0 0 1 3.68-4.64 20.462 20.462 0 0 1 3.64-2.827 22.388 22.388 0 0 1 4.253-2.053c1.6-.56 3.213-.933 4.813-1.12a23.328 23.328 0 0 1 2.547-.146c.693 0 1.373.026 2.067.093 8.253.786 15.706 6.226 18.653 14.546a21.947 21.947 0 0 1 .68 12.427 21.74 21.74 0 0 1-1.533 4.333 21.895 21.895 0 0 1-12.52 11.32 21.79 21.79 0 0 1-7.347 1.267M2058.2 2160h-13.68c.933-.76 2.013-1.36 3.2-1.786 1.2-.428 2.44-.628 3.64-.628 2.507 0 4.92.867 6.84 2.414M2853.686 2017.946c-5.411 0-10.645-1.56-15.12-4.4a27.671 27.671 0 0 1-3.677-2.76 27.548 27.548 0 0 1-5.287-6.306 28.623 28.623 0 0 1-2.087-4.094c-.16-.413-.318-.813-.46-1.226-1.662-4.707-2.016-9.56-1.22-14.16.265-1.52.637-3 1.15-4.454 2.705-7.853 8.823-14.44 17.24-17.426 2.6-.92 5.252-1.44 7.87-1.586.512-.027 1.025-.041 1.538-.041 1.025 0 2.05.053 3.059.173 10.432 1.146 19.822 8.081 23.57 18.613a30.343 30.343 0 0 1 1.062 3.828c.3 1.52.477 3.04.53 4.56.442 12-6.86 23.44-18.779 27.653a27.88 27.88 0 0 1-9.39 1.626m-12.307-8.053a23.81 23.81 0 0 0 12.308 3.453c2.617 0 5.269-.44 7.868-1.36 9.832-3.493 15.933-12.866 15.72-22.786a25.182 25.182 0 0 0-.53-4.56c-.23-.947-.495-1.88-.813-2.814-3.095-8.666-10.734-14.427-19.292-15.546a24.99 24.99 0 0 0-3.006-.188c-.531 0-1.061.014-1.574.055a23.495 23.495 0 0 0-6.313 1.307c-6.896 2.452-11.954 7.8-14.288 14.2a24.026 24.026 0 0 0-1.15 4.453 23.418 23.418 0 0 0 1.08 11.506c.088.24.176.467.247.707a25.754 25.754 0 0 0 2.087 4.093 24.013 24.013 0 0 0 3.978 4.733c1.15 1.04 2.37 1.96 3.678 2.747"/><path fill="#e7e6e6" d="M2853.656 2005.28c-2.587 0-5.07-.653-7.305-1.826a15.86 15.86 0 0 1-3.696-2.734 15.468 15.468 0 0 1-1.655-1.946 15.524 15.524 0 0 1-2.007-3.854c-.017-.08-.07-.16-.088-.24-.74-2.2-.968-4.453-.722-6.627.177-1.546.564-3.04 1.18-4.453a15.42 15.42 0 0 1 9.083-8.534 15.78 15.78 0 0 1 3.52-.813 18.117 18.117 0 0 1 1.69-.093c.986 0 1.954.107 2.905.28 5.245 1.014 9.84 4.694 11.74 10.08.124.36.247.72.335 1.08a15.63 15.63 0 0 1 .563 4.56c-.176 6.227-4.119 12-10.35 14.214a15.525 15.525 0 0 1-5.193.906M3078.141 2160h-4.893a16.573 16.573 0 0 0 1.002-9.507 15.09 15.09 0 0 0-.643-2.347 17.444 17.444 0 0 0-.85-2c-2.834-5.52-8.558-8.893-14.585-8.893-1.814 0-3.646.307-5.441.947-8.086 2.853-12.507 11.44-10.372 19.573.132.44.265.88.397 1.307.132.32.245.627.359.92h-4.893c-.057-.187-.114-.373-.17-.573-3.061-10.56 2.626-21.84 13.13-25.56a20.645 20.645 0 0 1 6.971-1.214c7.897 0 15.379 4.507 18.912 11.84.32.68.623 1.387.869 2.12.264.733.49 1.48.66 2.227.889 3.787.681 7.627-.453 11.16"/><path fill="#e7e6e6" d="M3067.142 2160h-17.908a11.833 11.833 0 0 1-1.413-2.707c-.17-.48-.3-.96-.395-1.453-1.111-5.293 1.845-10.733 7.08-12.587a11.205 11.205 0 0 1 3.691-.64c3.86 0 7.514 2.054 9.51 5.467.32.587.602 1.2.847 1.853.301.84.47 1.68.565 2.534.301 2.706-.452 5.386-1.977 7.533M2498.741 1929.147a27.06 27.06 0 0 1-18.38-7.214 29.461 29.461 0 0 1-3.114-3.4 27.68 27.68 0 0 1-3.952-7.333 26.702 26.702 0 0 1-1.147-13.574c.248-1.519.651-3 1.162-4.452 2.62-7.388 8.43-13.574 16.38-16.388a26.878 26.878 0 0 1 8.989-1.56c6.68 0 13.11 2.507 18.023 6.908a25.872 25.872 0 0 1 3.161 3.346c1.798 2.253 3.224 4.84 4.246 7.694a26.666 26.666 0 0 1 1.271 12.865 25.736 25.736 0 0 1-1.054 4.48c-2.495 7.68-8.414 14.174-16.612 17.081a26.772 26.772 0 0 1-8.973 1.547m-15.001-10.347a22.515 22.515 0 0 0 15.001 5.747c2.464 0 4.974-.413 7.438-1.28 6.695-2.374 11.546-7.613 13.669-13.854a21.093 21.093 0 0 0 1.038-4.48 21.89 21.89 0 0 0-1.1-10.213 22.547 22.547 0 0 0-3.317-6.12c-.93-1.227-1.999-2.347-3.16-3.333a22.47 22.47 0 0 0-14.63-5.44c-2.464 0-4.99.413-7.454 1.293-6.431 2.28-11.173 7.227-13.42 13.173a21.87 21.87 0 0 0-1.194 4.44 22.308 22.308 0 0 0 1.023 10.934 22.198 22.198 0 0 0 3.022 5.72 21.958 21.958 0 0 0 3.084 3.413"/><path fill="#e7e6e6" d="M2498.703 1916.961a14.8 14.8 0 0 1-9.345-3.334 14.09 14.09 0 0 1-3.069-3.426 14.365 14.365 0 0 1-1.51-3.068 14.683 14.683 0 0 1-.756-6.573c.154-1.547.57-3.04 1.218-4.44a14.683 14.683 0 0 1 8.527-7.852c1.62-.574 3.3-.854 4.935-.854 3.27 0 6.43 1.093 8.975 3.039a14.417 14.417 0 0 1 3.177 3.334c.724 1.04 1.326 2.2 1.773 3.466.694 1.934.94 3.92.817 5.84a14.344 14.344 0 0 1-1.002 4.494 14.674 14.674 0 0 1-8.805 8.52c-1.635.587-3.3.854-4.935.854M2858.085 1611.04c-.926 0-1.852-.028-2.797-.094-9.603-.652-18.69-4.678-25.638-11.28a41.82 41.82 0 0 1-3.154-3.36 41.459 41.459 0 0 1-7.251-12.666 47.896 47.896 0 0 1-1.265-4.306 39.825 39.825 0 0 1-.802-4.535c-2.263-18.691 8.641-37.159 27.117-43.719a41.118 41.118 0 0 1 13.72-2.373 41.256 41.256 0 0 1 22.947 7 36.429 36.429 0 0 1 3.67 2.76 40.957 40.957 0 0 1 10.798 14.147 38.266 38.266 0 0 1 1.407 3.506c.09.253.196.52.268.773 7.055 21.186-4.152 44.28-25.3 51.774a40.75 40.75 0 0 1-13.72 2.374m-2.743-4.708a38.166 38.166 0 0 0 4.596.066 36.47 36.47 0 0 0 10.334-2.066c18.672-6.626 28.632-26.96 22.574-45.694a21.474 21.474 0 0 0-.338-.985 39.125 39.125 0 0 0-1.354-3.294c-2.227-4.8-5.434-8.907-9.265-12.2a38.71 38.71 0 0 0-3.67-2.774c-5.933-3.907-12.971-6.079-20.205-6.079-4.044 0-8.16.679-12.187 2.106-16.356 5.801-25.994 22.107-24.106 38.64.178 1.507.446 3.027.82 4.534a31.903 31.903 0 0 0 1.05 3.507c1.48 4.16 3.618 7.88 6.29 11.092a34.614 34.614 0 0 0 3.154 3.348 36.824 36.824 0 0 0 22.307 9.8"/><path fill="#e7e6e6" d="M2858.045 1591.88c-.866 0-1.732-.053-2.581-.16a21.967 21.967 0 0 1-11.67-5.106 21.573 21.573 0 0 1-3.184-3.335 21.317 21.317 0 0 1-3.27-6.053c-.125-.346-.248-.679-.354-1.025a21.424 21.424 0 0 1-.85-4.522c-.795-9.706 4.952-19.118 14.571-22.533a22.084 22.084 0 0 1 7.338-1.266c4.067 0 8.028 1.146 11.441 3.213a22.174 22.174 0 0 1 3.66 2.787 21.368 21.368 0 0 1 4.492 6c.424.854.813 1.732 1.131 2.64.213.56.372 1.107.53 1.653 2.954 10.988-2.987 22.561-13.898 26.426a22.374 22.374 0 0 1-5.34 1.187c-.654.055-1.344.094-2.016.094M3408.096 1367.344c-7.892 0-15.341-4.279-19.255-11.345a21.705 21.705 0 0 1-1.473-3.308c-.127-.307-.21-.613-.316-.92-3.43-11.187 2.546-23.203 13.7-27.152.82-.297 1.662-.541 2.504-.733a22.125 22.125 0 0 1 4.566-.539l.274-.002c9.048 0 17.53 5.63 20.707 14.653.589 1.64.968 3.306 1.157 4.973.168 1.546.168 3.08 0 4.6a21.89 21.89 0 0 1-3.977 10.56 23.003 23.003 0 0 1-3.052 3.44 21.771 21.771 0 0 1-7.491 4.493 21.844 21.844 0 0 1-7.344 1.28M3119.964 1475.84c-4.19 0-8.15-2.131-10.458-5.718a14.048 14.048 0 0 1-1.23-2.547 14.375 14.375 0 0 1-.48-1.72c-1.192-5.96 2.133-12.04 8.035-14.134 1.365-.48 2.768-.72 4.133-.72 4.171 0 8.112 2.106 10.4 5.64.538.801.98 1.68 1.307 2.64.192.533.346 1.066.461 1.6 1.25 5.986-2.076 12.147-7.997 14.24a12.404 12.404 0 0 1-4.171.72M2306.615 1875.947c-2.356 0-4.699-.387-6.927-1.147l1.485-4.359a16.71 16.71 0 0 0 7.414.786l.542 4.56a20.07 20.07 0 0 1-2.514.16m11.456-3.36l-2.457-3.88a17.01 17.01 0 0 0 5.228-5.306l3.899 2.427a21.228 21.228 0 0 1-6.67 6.758m-26.482-2.772a21.286 21.286 0 0 1-5.113-8l4.314-1.56c.87 2.4 2.228 4.52 4.027 6.28l-3.228 3.28m36.251-12.96l-2.813-.306-1.757-.187c0-.08 0-.16.014-.24a16.726 16.726 0 0 0-.885-7.16l2.999-1.24 1.3-.36a21.157 21.157 0 0 1 1.142 9.492m-37.95-3.986l-4.571-.467c.029-.306.071-.6.1-.893.229-1.52.614-3.014 1.157-4.453a21.822 21.822 0 0 1 1.771-3.654l3.928 2.401c-.471.76-.871 1.545-1.2 2.36a16.715 16.715 0 0 0-1.157 4.453c-.014.08-.028.173-.028.253m28.38-10.347c-1.8-1.732-3.999-3.08-6.384-3.866l1.471-4.36a21.53 21.53 0 0 1 8.113 4.92l-3.2 3.306m-20.796-2.052l-2.485-3.867a21.332 21.332 0 0 1 8.913-3.24l.57 4.56a16.86 16.86 0 0 0-6.998 2.547M2306.59 1864.813a10.25 10.25 0 0 1-9.665-6.826 10.348 10.348 0 0 1-.597-3.787c.057-1.573.483-3.08 1.208-4.44a10.094 10.094 0 0 1 5.629-4.853 9.853 9.853 0 0 1 3.425-.6c4.208 0 8.173 2.627 9.651 6.827.398 1.119.583 2.266.597 3.386 0 1.573-.355 3.107-1.023 4.493a10.277 10.277 0 0 1-5.8 5.213c-1.136.401-2.302.587-3.425.587M2514.398 1648.774c-9.027 0-17.508-5.613-20.699-14.6-.14-.413-.28-.84-.404-1.266a21.75 21.75 0 0 1-.81-4.52c-.669-9.588 5.074-18.854 14.567-22.213a21.856 21.856 0 0 1 7.3-1.267c9.025 0 17.507 5.627 20.682 14.6.218.586.404 1.172.545 1.76.404 1.52.622 3.04.7 4.559.436 9.387-5.26 18.387-14.582 21.68a21.509 21.509 0 0 1-7.3 1.267m-16.527-16.613c.062.16.11.32.171.48 2.522 7.093 9.213 11.533 16.341 11.533 1.914 0 3.875-.32 5.79-1 7.174-2.547 11.64-9.373 11.531-16.6a17.68 17.68 0 0 0-.684-4.546c-.094-.333-.203-.653-.312-.974-2.505-7.106-9.213-11.546-16.356-11.546-1.914 0-3.86.32-5.774 1-7.36 2.614-11.843 9.707-11.516 17.12.062 1.506.327 3.027.81 4.533"/><path fill="#e7e6e6" d="M2514.368 1639.268c-4.991 0-9.673-3.04-11.564-7.92a4.343 4.343 0 0 1-.124-.347 12.383 12.383 0 0 1-.729-4.174c.016-5.106 3.194-9.88 8.263-11.679a12.29 12.29 0 0 1 4.154-.72c5.1 0 9.89 3.173 11.705 8.267.015.054.03.093.046.147a12.5 12.5 0 0 1 .667 4.545 12.424 12.424 0 0 1-8.263 11.162c-1.364.479-2.775.719-4.155.719M3038.804 1344.443c-2.833 0-5.61-.707-8.049-2a17.283 17.283 0 0 1-3.771-2.653 17.274 17.274 0 0 1-4.503-6.884c-3.19-9.018 1.52-18.919 10.544-22.116a17.256 17.256 0 0 1 5.78-1.002c3.114 0 6.153.844 8.78 2.387a17.55 17.55 0 0 1 3.621 2.833 17.094 17.094 0 0 1 3.922 6.316c3.208 9.017-1.52 18.918-10.526 22.119-1.914.68-3.884 1-5.798 1M3124.272 1225.25c-1.829 0-3.638-.42-5.256-1.198a12.59 12.59 0 0 1-3.734-2.722 12.623 12.623 0 0 1-2.561-4.237c-2.252-6.376 1.097-13.378 7.47-15.64a12.16 12.16 0 0 1 9.491.558 12.413 12.413 0 0 1 3.696 2.772 12.41 12.41 0 0 1 2.445 4.12c2.253 6.374-1.078 13.376-7.45 15.638-1.348.48-2.734.709-4.1.709M3561.613 1356.415c-5.484 0-10.617-3.413-12.548-8.867-.307-.8-.504-1.612-.614-2.426-.263-1.547-.197-3.106.088-4.6a13.336 13.336 0 0 1 13.074-10.752 13.33 13.33 0 0 1 12.549 8.872 13.308 13.308 0 0 1-6.011 16.053c-.658.373-1.36.694-2.084.946-1.47.533-2.984.774-4.454.774M3775.689 1683.987c-10.197 0-19.764-6.347-23.358-16.481-2.684-7.547-1.47-15.56 2.613-21.8a23.59 23.59 0 0 1 2.847-3.614c.77-.787 1.564-1.545 2.45-2.24 1.167-.945 2.474-1.785 3.85-2.518a27.034 27.034 0 0 1 3.29-1.442 24.47 24.47 0 0 1 8.238-1.426c10.22 0 19.764 6.347 23.381 16.479 4.55 12.867-2.193 27.04-15.074 31.614a24.766 24.766 0 0 1-8.237 1.428m-17.221-35.268c-3.057 5.014-3.92 11.308-1.82 17.24 2.94 8.253 10.734 13.426 19.018 13.426 2.24 0 4.503-.373 6.743-1.16 10.454-3.72 15.961-15.265 12.251-25.733-2.94-8.265-10.734-13.427-19.018-13.427-2.24 0-4.503.374-6.72 1.16-.793.282-1.54.588-2.24.947a20.39 20.39 0 0 0-3.874 2.52c-.513.442-1.05.908-1.517 1.4a19.482 19.482 0 0 0-2.823 3.627"/><path fill="#e7e6e6" d="M3775.64 1672.546a13.368 13.368 0 0 1-12.558-8.865 13.362 13.362 0 0 1 .65-10.427 13.61 13.61 0 0 1 2.768-3.707c.047-.04.093-.093.14-.147a13.313 13.313 0 0 1 3.883-2.465c.233-.095.442-.188.675-.267 1.465-.521 2.976-.76 4.442-.76 5.488 0 10.627 3.399 12.58 8.866 2.443 6.933-1.185 14.547-8.115 17a13.042 13.042 0 0 1-4.465.772M3765.148 1914.24c-11.704 0-22.732-6.627-28.048-17.48a37.087 37.087 0 0 1-1.399-3.32c-.116-.32-.21-.628-.303-.947-.49-1.494-.84-3-1.096-4.493a34.052 34.052 0 0 1-.396-4.586c-.187-13.014 7.857-25.28 20.797-29.867a31.068 31.068 0 0 1 10.445-1.814c12.87 0 24.9 8 29.447 20.814 5.783 16.265-2.728 34.12-19.002 39.892a31.106 31.106 0 0 1-10.445 1.8M3357.582 922.067a22.098 22.098 0 0 1-11.205-3.06 22.754 22.754 0 0 1-3.694-2.74 21.983 21.983 0 0 1-5.83-8.844c-4.068-11.446 1.93-24.016 13.363-28.077a22.014 22.014 0 0 1 7.366-1.27c9.048 0 17.514 5.63 20.71 14.643 4.067 11.449-1.91 24.02-13.364 28.078a22.28 22.28 0 0 1-7.346 1.27M1402.933 1907.32a21.99 21.99 0 0 1-3.253-.24l20.92-8.4a22.208 22.208 0 0 1-10.187 7.347c-2.466.88-5 1.293-7.48 1.293m-10.146-2.427a22.522 22.522 0 0 1-7.827-6.533 22.14 22.14 0 0 1-2.373-3.947 25.147 25.147 0 0 1-.84-2.04c-4.134-11.666 1.986-24.533 13.653-28.666 2.48-.88 5-1.294 7.493-1.294.414 0 .84.014 1.254.027a22.62 22.62 0 0 1 4.546.733c6.507 1.747 12.134 6.374 14.907 12.96.173.4.32.814.467 1.227.373 1.053.666 2.107.88 3.173.786 4.027.44 8.094-.867 11.8l-6.413 2.574c.84-1.24 1.52-2.574 2.026-3.987a17.862 17.862 0 0 0 .827-9.04c-.173-1-.427-2-.787-2.987-.16-.48-.36-.946-.56-1.413-2.226-4.893-6.44-8.36-11.333-9.773-1.467-.427-3-.654-4.547-.694h-.4c-1.973 0-3.986.32-5.946 1.027-9.28 3.293-14.16 13.52-10.867 22.8.147.387.293.773.453 1.147a17.998 17.998 0 0 0 2.36 3.946c2.6 3.28 6.267 5.52 10.307 6.387l-6.413 2.573"/><path fill="#dddedd" d="M1399.68 1907.08a22.622 22.622 0 0 1-6.893-2.187l6.413-2.573c1.213.267 2.467.4 3.733.4 1.974 0 3.974-.333 5.947-1.027a17.77 17.77 0 0 0 8.707-6.68c.026-.04.053-.066.08-.106l6.413-2.574c-.08.2-.147.414-.227.614a22.786 22.786 0 0 1-2.093 4.093c-.36.56-.747 1.107-1.16 1.64l-20.92 8.4"/><path fill="#e7e6e6" d="M1402.907 1897.893a13.058 13.058 0 0 1-9.854-4.506 13.088 13.088 0 0 1-2.346-3.96c-.027-.067-.054-.134-.08-.214-2.4-6.773 1.146-14.226 7.933-16.626a12.98 12.98 0 0 1 3.84-.747h.507c1.386 0 2.746.213 4.04.64a12.98 12.98 0 0 1 7.546 6.427c.267.506.494 1.04.694 1.6.333.92.546 1.853.653 2.786.24 1.88.04 3.76-.507 5.507a13.305 13.305 0 0 1-2.146 4.08 13.06 13.06 0 0 1-5.92 4.267c-1.44.506-2.907.746-4.36.746M1201.604 2025.12c-6.399 0-12.393-3.987-14.655-10.36-2.87-8.093 1.364-16.987 9.458-19.853a15.424 15.424 0 0 1 5.197-.894c4.225 0 8.275 1.734 11.19 4.747a15.53 15.53 0 0 1 3.466 5.6 15.496 15.496 0 0 1-.659 11.973 15.436 15.436 0 0 1-8.798 7.88 15.445 15.445 0 0 1-5.199.907M1085.565 1535.867l-.777-4.52a22.971 22.971 0 0 0 7.427-2.667l2.27 4a27.663 27.663 0 0 1-4.393 2.013c-1.48.52-3.001.92-4.527 1.174m-9.481-.04a27.352 27.352 0 0 1-8.888-3.28l2.31-3.974a23.104 23.104 0 0 0 7.403 2.734l-.825 4.52m25.701-9.2l-3.506-2.974a22.866 22.866 0 0 0 3.985-6.8l4.31 1.6c-.08.214-.163.44-.249.64a27.223 27.223 0 0 1-4.54 7.534m-41.83-.187a27.286 27.286 0 0 1-4.712-8.227l4.325-1.56a22.651 22.651 0 0 0 3.916 6.84l-3.53 2.947m48.34-17.307l-4.597-.04a22.74 22.74 0 0 0-1.313-7.773l2.921-1.24 1.394-.347c1.089 3.08 1.622 6.227 1.594 9.4m-50.084-.253h-4.596c.006-3.2.566-6.333 1.664-9.333l4.318 1.573a22.751 22.751 0 0 0-1.386 7.76m5.332-14.587l-3.524-2.946a26.947 26.947 0 0 1 7.264-6.094l2.295 3.974a22.665 22.665 0 0 0-6.035 5.066m34.795-.04a22.759 22.759 0 0 0-6.055-5.04l2.294-3.986a27.053 27.053 0 0 1 7.273 6.066l-3.512 2.96m-21.347-7.72l-.809-4.52a26.166 26.166 0 0 1 4.775-.426c1.573 0 3.145.133 4.708.413l-.795 4.52a22.065 22.065 0 0 0-7.879.013M1080.953 1523.627c-6.05 0-11.716-3.76-13.854-9.787-2.35-6.627.336-13.813 6.066-17.387a15.72 15.72 0 0 1 2.874-1.386c.452-.16.906-.294 1.362-.4a14.127 14.127 0 0 1 3.554-.44c6.049 0 11.716 3.76 13.853 9.786.824 2.32 1.03 4.72.7 7a14.708 14.708 0 0 1-9.64 11.773c-1.625.574-3.284.84-4.915.84M1012.065 1371.16c-6.05 0-11.716-3.76-13.854-9.787-2.268-6.4.157-13.32 5.484-17a14.157 14.157 0 0 1 3.457-1.773 14.501 14.501 0 0 1 4.913-.853c6.051 0 11.718 3.773 13.856 9.8 2.336 6.586-.309 13.733-5.978 17.32a14.145 14.145 0 0 1-2.963 1.44c-.419.146-.839.28-1.26.386-1.216.32-2.444.467-3.655.467M992.34 1320.479a6.226 6.226 0 0 1 0-12.454 6.227 6.227 0 0 1 0 12.454M969.815 1283.98c-7.315 0-14.182-4.552-16.763-11.83-2.912-8.209.597-17.165 7.901-21.353.911-.522 1.882-.97 2.906-1.333a17.636 17.636 0 0 1 5.924-1.024c7.316 0 14.182 4.553 16.764 11.83 2.758 7.777-.247 16.222-6.779 20.651a17.771 17.771 0 0 1-4.03 2.035l-.082.03c-1.93.674-3.903.994-5.841.994m-6.94-28.976c-5.163 3.19-7.599 9.663-5.49 15.61 1.914 5.393 7.004 8.767 12.424 8.767a13.104 13.104 0 0 0 4.392-.758 13.155 13.155 0 0 0 3.62-1.966c4.4-3.382 6.346-9.342 4.392-14.849-1.913-5.395-7.004-8.77-12.425-8.77-.873 0-1.756.087-2.633.269a13.246 13.246 0 0 0-4.28 1.697"/><path fill="#e7e6e6" d="M969.8 1273.37a7.162 7.162 0 0 1-.023-14.322h.022a7.16 7.16 0 0 1 5.398 11.867 7.133 7.133 0 0 1-3.997 2.316c-.467.094-.936.14-1.4.14M1099.644 1185.459a7.162 7.162 0 0 1-3.867-13.188 7.192 7.192 0 0 1 3.867-1.134 7.164 7.164 0 0 1 6.748 4.768 7.167 7.167 0 0 1-2.592 8.224c-.53.378-1.12.688-1.763.916-.792.282-1.6.414-2.393.414M1119.788 1202.099a8.456 8.456 0 0 1-7.785-11.744 8.453 8.453 0 0 1 2.873-3.59 8.398 8.398 0 0 1 2.087-1.085 8.428 8.428 0 0 1 2.826-.49 8.454 8.454 0 0 1-.001 16.909M1294.479 1346.587c-8.408 0-16.303-5.24-19.27-13.606-2.128-5.997-1.273-12.341 1.787-17.404a20.325 20.325 0 0 1 10.637-8.675 20.368 20.368 0 0 1 6.811-1.175c8.41 0 16.301 5.232 19.268 13.598 2.088 5.887 1.305 12.106-1.616 17.115a20.387 20.387 0 0 1-2.744 3.693 20.219 20.219 0 0 1-8.061 5.267c-2.251.8-4.551 1.187-6.812 1.187m-13.795-28.211c-2.172 3.852-2.732 8.585-1.141 13.07 2.298 6.474 8.416 10.54 14.932 10.54a15.58 15.58 0 0 0 5.278-.92 15.661 15.661 0 0 0 5.91-3.733 15.818 15.818 0 0 0 2.736-3.693c2.037-3.799 2.53-8.407.98-12.777-2.299-6.482-8.418-10.538-14.932-10.538-1.752 0-3.532.294-5.276.912a15.75 15.75 0 0 0-5.674 3.503 15.873 15.873 0 0 0-2.813 3.636"/><path fill="#e7e6e6" d="M1294.46 1334.613a8.459 8.459 0 0 1-7.964-5.633 8.422 8.422 0 0 1 .161-6.07 8.456 8.456 0 0 1 2.852-3.607 8.445 8.445 0 0 1 2.127-1.114 8.42 8.42 0 0 1 2.825-.489 8.454 8.454 0 0 1 7.964 5.628 8.423 8.423 0 0 1-.034 5.75 8.46 8.46 0 0 1-2.704 3.72 8.645 8.645 0 0 1-2.402 1.322 8.393 8.393 0 0 1-2.825.493M841.503 1006.71c-2.595 0-5.199-.43-7.654-1.271l1.487-4.348a19.103 19.103 0 0 0 8.424.885l.555 4.563c-.931.113-1.871.17-2.812.17m12.709-3.713l-2.468-3.88a19.154 19.154 0 0 0 5.952-6.03l3.907 2.42a23.657 23.657 0 0 1-7.391 7.49m-29.313-3.067a23.444 23.444 0 0 1-5.676-8.853l4.326-1.559a18.841 18.841 0 0 0 4.57 7.131l-3.22 3.281m40.128-14.361l-4.574-.493c.31-2.86-.024-5.692-.993-8.42l4.252-1.77.083.232a23.515 23.515 0 0 1 1.232 10.451m-42.527-4.463l-4.573-.469a23.896 23.896 0 0 1 3.365-9.961l3.923 2.396a19.305 19.305 0 0 0-2.715 8.034m32.273-11.765a19.327 19.327 0 0 0-7.245-4.403l1.46-4.358a23.89 23.89 0 0 1 8.983 5.458l-3.198 3.303m-23.644-2.33l-2.49-3.867a24.061 24.061 0 0 1 9.874-3.603l.583 4.563a19.404 19.404 0 0 0-7.967 2.906M841.484 991.544a8.51 8.51 0 0 1-2.844-16.53c.94-.334 1.9-.493 2.844-.493a8.51 8.51 0 0 1 8.019 5.667 8.46 8.46 0 0 1 .136 5.276 8.52 8.52 0 0 1-2.887 4.255 8.516 8.516 0 0 1-2.424 1.333 8.515 8.515 0 0 1-2.844.492M1920.027 1400.413c-1.334 0-2.667-.093-3.974-.293a27.934 27.934 0 0 1-7.4-2.16 27.728 27.728 0 0 1-4.026-2.253 27.276 27.276 0 0 1-10.574-13.627c-5.08-14.307 2.427-30.08 16.747-35.147a27.283 27.283 0 0 1 9.173-1.586c11.334 0 21.974 7.053 25.974 18.333 5.08 14.307-2.427 30.08-16.747 35.147-2.8 1-5.667 1.506-8.493 1.586h-.68m-2.907-4.786c.96.133 1.92.186 2.893.186.6 0 1.2-.013 1.8-.066 1.96-.16 3.92-.56 5.854-1.254 11.92-4.226 18.173-17.36 13.946-29.28-3.32-9.4-12.186-15.266-21.626-15.266-2.547 0-5.134.413-7.654 1.32-11.92 4.226-18.186 17.36-13.946 29.28 1.693 4.8 4.84 8.68 8.773 11.333a23.902 23.902 0 0 0 4.067 2.187 22.89 22.89 0 0 0 5.893 1.56"/><path fill="#e7e6e6" d="M1920 1387.587c-.32 0-.653-.014-.973-.04a14.43 14.43 0 0 1-3.12-.547 14.808 14.808 0 0 1-4.2-1.987 14.543 14.543 0 0 1-5.56-7.213c-2.72-7.653 1.293-16.067 8.933-18.773a14.816 14.816 0 0 1 4.92-.854c6.053 0 11.72 3.76 13.853 9.787 2.72 7.653-1.293 16.067-8.933 18.773-.347.12-.707.24-1.053.334-1.28.346-2.587.52-3.867.52"/><path fill="#d3d4d3" d="M2126.066 1494.011l121.832 40.401 79.807 310.054zm82.802-380.376l-88.763 374.897-507.574 23.866zM1169.002 2060.28l311.753-200.8 766.684 174.107zm-626.605-88.493l314.094-134.4 109.761 81.774zm-421.29-577.881l198.624-42.374 308.13 312.988zm316.905-243.488l110.482 81.454-23.676 124.887-201.048-9.266zM168.596 946.815l-43.408-494.084 378.387 576.605-66.785 115.21zm456.543-119.21l-55.85 294.581-61.014-92.98zm-75.818 399.906l-109.293-80.576 66.002-113.858 62.188 94.764zm105.446 32.22l-30.549 22.999-71.325-52.586 18.481-97.49zm237.967-174.148l-172.317 266.895-60.25-91.806zm269.816 974.096l-93.307-149.28 402.686-49.986zm-97.683-148.733l83.347 133.333-116.683-129.2zm-38.183 4.734l120.118 133.013-170.172-126.786zm-349.026-386.455l247.745 274.321-68.367 29.254-216.278-161.134zm-152.63-168.454l108.526 303.828-308.164-313.028zm4.36-6.653l22.68-119.612 68.814 50.734zm456.8 423.414l-259.2-414.668 483.324 318.761zm2.147 3.44l225.98-96.706 260.422 171.76-407.831 50.64zm-59.045 20.908l-250.432-277.295 42.341-163.427 261.268 417.962zm55.324-19.32l77.914 124.639-34.271 4.267-96.132-106.454zm-310.167-256.882l-36.266 139.987-106.445-298.014zM530.906 1360.77l186.933-2.586-42.19 162.853zm96.67-75.565l29.389-22.124 55.675 84.835zm86.885 69.033l-181.907 2.506 91.687-69.027zm146.286 481.32l67.491-28.88 95.173 105.387-51.418 6.373zm657.405-87.533l-38.787 106.253-260.646-171.893 383.238-164.001zm80.352-232.508l-383.786 164.227-485.068-319.907zm736.724 342.201l-83.734-325.36a1.984 1.984 0 0 0-1.304-1.4l-126.116-41.827 89.852-379.529c.2-.8-.115-1.636-.803-2.106a2.02 2.02 0 0 0-2.25-.02l-605.879 405.148-881.253-157.908 178.45-276.41a1.997 1.997 0 0 0-.315-2.548 2.001 2.001 0 0 0-2.568-.132l-241.34 181.693L572.448 1127l58.804-310.165a2 2 0 1 0-3.695-1.378l-121.738 210.01L124.172 443.89a2.004 2.004 0 0 0-2.328-.788 1.996 1.996 0 0 0-1.336 2.063l44.182 502.899c.05.57.344 1.095.806 1.433l269.275 198.529-115.67 199.545-204.18 43.559a2.01 2.01 0 0 0-1.563 1.68 2.002 2.002 0 0 0 1.039 2.04l523.009 279.308 215.374 160.453-324.967 139.055c-.916.4-1.405 1.4-1.144 2.373a1.993 1.993 0 0 0 1.93 1.467l.248-.014 442.042-54.88 189.846 141.44h.006c.336.254.749.4 1.19.4h.048l1101.594-27.267a1.98 1.98 0 0 0 1.934-1.8c.115-1-.559-1.92-1.547-2.146l-780.927-177.347 123.824-339.228 513.721-24.16 210.982 366.707a2.02 2.02 0 0 0 1.733 1.013c.258 0 .516-.053.76-.146a1.996 1.996 0 0 0 1.175-2.36"/><path fill="#8f9195" d="M639.517 824.493c0 7.063-5.725 12.787-12.789 12.787-7.063 0-12.788-5.724-12.788-12.787 0-7.066 5.725-12.786 12.788-12.786 7.064 0 12.79 5.72 12.79 12.786M720.564 1327.816c-15.75 0-28.564 12.81-28.564 28.57 0 15.747 12.815 28.56 28.564 28.56 15.752 0 28.567-12.813 28.567-28.56 0-15.76-12.815-28.57-28.567-28.57zm0 61.13c-17.956 0-32.564-14.613-32.564-32.56 0-17.96 14.608-32.57 32.564-32.57 17.957 0 32.567 14.61 32.567 32.57 0 17.947-14.61 32.56-32.567 32.56"/><path fill="#8f9195" d="M739.696 1356.387c0 10.56-8.565 19.12-19.13 19.12-10.566 0-19.131-8.56-19.131-19.12 0-10.574 8.565-19.134 19.13-19.134 10.566 0 19.131 8.56 19.131 19.134M541.401 1359.093c0 7.467-6.056 13.534-13.528 13.534-7.47 0-13.528-6.067-13.528-13.534 0-7.466 6.058-13.533 13.528-13.533 7.472 0 13.528 6.067 13.528 13.533M656.547 1670.773c0 10.56-8.566 19.134-19.131 19.134s-19.132-8.574-19.132-19.134c0-10.573 8.567-19.133 19.132-19.133 10.565 0 19.13 8.56 19.13 19.133M779.623 1770.52c0 5.24-4.242 9.48-9.474 9.48-5.233 0-9.474-4.24-9.474-9.48 0-5.227 4.241-9.467 9.474-9.467 5.232 0 9.474 4.24 9.474 9.467M856.753 1820.76c-7.225 0-13.106 5.88-13.106 13.12 0 7.227 5.881 13.107 13.106 13.107 7.23 0 13.11-5.88 13.11-13.107 0-7.24-5.88-13.12-13.11-13.12zm0 30.227c-9.433 0-17.106-7.68-17.106-17.107 0-9.44 7.673-17.12 17.106-17.12 9.435 0 17.11 7.68 17.11 17.12 0 9.427-7.675 17.107-17.11 17.107"/><path fill="#8f9195" d="M866.23 1833.88c0 5.227-4.242 9.467-9.475 9.467-5.232 0-9.475-4.24-9.475-9.467 0-5.24 4.243-9.48 9.475-9.48 5.233 0 9.474 4.24 9.474 9.48M1181.379 2062.04c0 10.56-8.567 19.133-19.131 19.133-10.567 0-19.132-8.573-19.132-19.133 0-10.573 8.565-19.133 19.132-19.133 10.564 0 19.13 8.56 19.13 19.133M1479.947 1836.72c-11.334 0-20.56 9.227-20.56 20.56 0 11.333 9.226 20.56 20.56 20.56 11.333 0 20.56-9.227 20.56-20.56 0-11.333-9.227-20.56-20.56-20.56zm0 45.12c-13.547 0-24.56-11.013-24.56-24.56 0-13.533 11.013-24.56 24.56-24.56 13.533 0 24.56 11.027 24.56 24.56 0 13.547-11.027 24.56-24.56 24.56"/><path fill="#8f9195" d="M1493.467 1857.28c0 7.467-6.054 13.533-13.52 13.533-7.467 0-13.534-6.066-13.534-13.533s6.067-13.52 13.534-13.52c7.466 0 13.52 6.053 13.52 13.52M1522.4 2053.56c0 7.48-6.067 13.533-13.533 13.533-7.467 0-13.534-6.053-13.534-13.533 0-7.467 6.067-13.52 13.534-13.52 7.466 0 13.533 6.053 13.533 13.52M1599.987 2036.92c-7.84 0-14.227 6.387-14.227 14.226 0 7.854 6.387 14.227 14.227 14.227 7.853 0 14.24-6.373 14.24-14.227 0-7.84-6.387-14.226-14.24-14.226zm0 32.453c-10.054 0-18.227-8.173-18.227-18.227 0-10.053 8.173-18.226 18.227-18.226 10.053 0 18.24 8.173 18.24 18.226 0 10.054-8.187 18.227-18.24 18.227"/><path fill="#8f9195" d="M1609.56 2051.146c0 5.28-4.28 9.56-9.573 9.56a9.56 9.56 0 0 1-9.56-9.56 9.56 9.56 0 0 1 9.56-9.56c5.293 0 9.573 4.28 9.573 9.56M1214.375 1662.84c-10.724 0-19.451 8.72-19.451 19.453 0 10.72 8.727 19.454 19.45 19.454 10.727 0 19.454-8.734 19.454-19.454 0-10.733-8.727-19.453-19.453-19.453zm0 42.907c-12.931 0-23.451-10.52-23.451-23.454 0-12.933 10.52-23.453 23.45-23.453 12.933 0 23.454 10.52 23.454 23.453 0 12.934-10.521 23.454-23.453 23.454"/><path fill="#8f9195" d="M1227.227 1682.293c0 7.094-5.754 12.854-12.851 12.854-7.099 0-12.852-5.76-12.852-12.854 0-7.106 5.753-12.853 12.852-12.853 7.097 0 12.85 5.747 12.85 12.853M1605.653 1482.52c-17.546 0-31.813 14.267-31.813 31.8 0 17.547 14.267 31.813 31.813 31.813 17.534 0 31.814-14.266 31.814-31.813 0-17.533-14.28-31.8-31.814-31.8zm0 67.613c-19.746 0-35.813-16.066-35.813-35.813 0-19.747 16.067-35.8 35.813-35.8 19.747 0 35.814 16.053 35.814 35.8 0 19.747-16.067 35.813-35.814 35.813"/><path fill="#8f9195" d="M1624.787 1514.32c0 10.573-8.574 19.133-19.134 19.133s-19.133-8.56-19.133-19.133c0-10.56 8.573-19.12 19.133-19.12 10.56 0 19.134 8.56 19.134 19.12M2141.053 1490.187c0 10.56-8.56 19.133-19.12 19.133-10.573 0-19.133-8.573-19.133-19.133 0-10.574 8.56-19.134 19.133-19.134 10.56 0 19.12 8.56 19.12 19.134M1862.173 1503.213c0 5.974-4.84 10.8-10.8 10.8-5.973 0-10.8-4.826-10.8-10.8 0-5.96 4.827-10.8 10.8-10.8 5.96 0 10.8 4.84 10.8 10.8M1067.333 1573.16l-.917-3.893a18.578 18.578 0 0 1 8.261-.067l-.854 3.907a14.8 14.8 0 0 0-6.49.053zm16.456 7.733a14.795 14.795 0 0 0-4.101-5.026l2.468-3.147a18.816 18.816 0 0 1 5.215 6.387zm-26.284.227l-3.613-1.72a18.79 18.79 0 0 1 5.107-6.48l2.518 3.107a14.76 14.76 0 0 0-4.012 5.093zm29.96 14.307l-3.605-1.734a14.536 14.536 0 0 0 1.437-6.32l2.82-.146 1.18.08c0 2.88-.617 5.586-1.832 8.12zm-33.481.093a18.412 18.412 0 0 1-1.876-8.053l4-.027c.01 2.227.505 4.347 1.47 6.32zm20.897 9.973l-.894-3.906a14.627 14.627 0 0 0 5.832-2.827l2.5 3.133a18.816 18.816 0 0 1-7.438 3.6zm-8.26.027a18.843 18.843 0 0 1-7.454-3.56l2.48-3.147a14.66 14.66 0 0 0 5.849 2.8l-.875 3.907M1079.62 1587.36a8.915 8.915 0 0 1-8.919 8.92 8.915 8.915 0 0 1-8.917-8.92c0-4.92 3.993-8.907 8.917-8.907 4.926 0 8.919 3.987 8.919 8.907M1307.301 1446.013c-8.314 0-15.078 6.76-15.078 15.067 0 8.32 6.764 15.08 15.078 15.08s15.078-6.76 15.078-15.08c0-8.307-6.764-15.067-15.078-15.067zm0 34.147c-10.52 0-19.078-8.56-19.078-19.08 0-10.52 8.558-19.067 19.078-19.067 10.519 0 19.078 8.547 19.078 19.067s-8.559 19.08-19.078 19.08"/><path fill="#8f9195" d="M1318.101 1461.093c0 5.96-4.836 10.8-10.8 10.8-5.965 0-10.8-4.84-10.8-10.8 0-5.973 4.835-10.8 10.8-10.8 5.964 0 10.8 4.827 10.8 10.8M1839.533 1367.853c0 8.32-6.746 15.067-15.066 15.067s-15.067-6.747-15.067-15.067c0-8.333 6.747-15.08 15.067-15.08s15.066 6.747 15.066 15.08M1938.387 1299.137c0 5.886-4.774 10.656-10.667 10.656-5.88 0-10.653-4.77-10.653-10.656 0-5.885 4.773-10.656 10.653-10.656 5.893 0 10.667 4.771 10.667 10.656M2260.05 1532.987c0 6.4-5.186 11.588-11.592 11.588-6.392 0-11.578-5.187-11.578-11.588 0-6.4 5.186-11.585 11.578-11.585 6.406 0 11.591 5.185 11.591 11.585M2332.04 1836.906c-9.675 0-17.544 7.866-17.544 17.533 0 9.667 7.869 17.533 17.543 17.533 9.66 0 17.53-7.866 17.53-17.533 0-9.667-7.87-17.533-17.53-17.533zm0 39.066c-11.884 0-21.544-9.653-21.544-21.533s9.66-21.533 21.543-21.533c11.87 0 21.529 9.653 21.529 21.533s-9.66 21.533-21.529 21.533"/><path fill="#8f9195" d="M2343.614 1854.44c0 6.4-5.19 11.586-11.589 11.586-6.398 0-11.588-5.186-11.588-11.586s5.19-11.587 11.588-11.587c6.398 0 11.589 5.188 11.589 11.587M2285.52 2034.853c0 15.014-12.17 27.187-27.187 27.187-15.003 0-27.174-12.173-27.174-27.187 0-15.013 12.17-27.186 27.174-27.186 15.017 0 27.188 12.173 27.188 27.186M2229.144 1110.413c0 10.564-8.574 19.13-19.132 19.13-10.571 0-19.132-8.566-19.132-19.13 0-10.567 8.56-19.132 19.132-19.132 10.558 0 19.132 8.565 19.132 19.132M531.301 1943.613c-17.33 0-31.43 14.094-31.43 31.427s14.1 31.427 31.43 31.427 31.43-14.094 31.43-31.427-14.1-31.427-31.43-31.427zm0 66.854c-19.536 0-35.43-15.894-35.43-35.427s15.894-35.427 35.43-35.427c19.535 0 35.43 15.894 35.43 35.427s-15.895 35.427-35.43 35.427"/><path fill="#8f9195" d="M550.43 1975.04c0 10.573-8.565 19.133-19.13 19.133s-19.13-8.56-19.13-19.133c0-10.56 8.565-19.133 19.13-19.133s19.13 8.573 19.13 19.133M320.953 1333.867c-8.566 0-15.536 6.973-15.536 15.533 0 8.573 6.97 15.533 15.536 15.533 8.564 0 15.534-6.96 15.534-15.533 0-8.56-6.97-15.533-15.534-15.533zm0 35.066c-10.772 0-19.536-8.76-19.536-19.533 0-10.773 8.764-19.53 19.536-19.53 10.771 0 19.534 8.757 19.534 19.53 0 10.773-8.763 19.533-19.534 19.533"/><path fill="#8f9195" d="M332.285 1349.4c0 6.267-5.073 11.333-11.333 11.333-6.259 0-11.333-5.066-11.333-11.333 0-6.253 5.074-11.333 11.333-11.333 6.26 0 11.333 5.08 11.333 11.333M133.161 1393.107c0 7.466-6.057 13.52-13.528 13.52s-13.527-6.054-13.527-13.52c0-7.48 6.056-13.534 13.527-13.534 7.471 0 13.528 6.054 13.528 13.534M176.03 930.305a19.576 19.576 0 0 0-6.463-2.284l.652-3.945a23.52 23.52 0 0 1 7.78 2.748zm-19.747.171l-2.031-3.445a23.592 23.592 0 0 1 7.728-2.884l.723 3.933a19.592 19.592 0 0 0-6.42 2.396zm28.54 10.088a19.754 19.754 0 0 0-3.496-5.9l3.038-2.601a23.704 23.704 0 0 1 4.199 7.092zm-37.155.323l-3.765-1.344a23.7 23.7 0 0 1 4.077-7.168l3.083 2.55a19.724 19.724 0 0 0-3.395 5.962zm40.992 14.772l-3.757-1.368a19.712 19.712 0 0 0 1.182-6.756l2.76-.175 1.24.128c0 2.836-.477 5.57-1.425 8.17zm-44.665.128a23.676 23.676 0 0 1-1.474-8.111l4-.024a19.718 19.718 0 0 0 1.223 6.748zm34.241 12.324l-2.012-3.456a19.89 19.89 0 0 0 5.248-4.424l3.067 2.57a23.828 23.828 0 0 1-6.303 5.31zm-23.748.066a23.894 23.894 0 0 1-6.333-5.273l3.05-2.59a19.903 19.903 0 0 0 5.275 4.395zm11.817 3.139c-1.365 0-2.729-.117-4.054-.345l.678-3.942c2.238.388 4.606.379 6.862-.017l.7 3.937a24.011 24.011 0 0 1-4.186.367M179.093 947.535c0 7.064-5.725 12.789-12.788 12.789-7.064 0-12.789-5.725-12.789-12.79 0-7.062 5.725-12.787 12.79-12.787 7.062 0 12.787 5.725 12.787 12.788M166.952 802.493c0 7.054-5.725 12.787-12.788 12.787-7.064 0-12.79-5.733-12.79-12.787 0-7.066 5.726-12.8 12.79-12.8 7.063 0 12.788 5.734 12.788 12.8M155.679 762.147a5.416 5.416 0 0 1-10.831 0 5.416 5.416 0 0 1 10.83 0M145.753 704.747c-6.317 0-11.458 5.133-11.458 11.453 0 6.32 5.141 11.453 11.458 11.453 6.319 0 11.46-5.133 11.46-11.453 0-6.32-5.141-11.453-11.46-11.453zm0 26.906c-8.522 0-15.458-6.933-15.458-15.453s6.936-15.453 15.458-15.453c8.524 0 15.46 6.933 15.46 15.453s-6.936 15.453-15.46 15.453"/><path fill="#8f9195" d="M151.983 716.2a6.226 6.226 0 0 1-6.228 6.227 6.226 6.226 0 1 1 0-12.454 6.226 6.226 0 0 1 6.228 6.227M284.01 681.88c0 3.44-2.789 6.227-6.229 6.227a6.226 6.226 0 1 1 0-12.454c3.44 0 6.23 2.787 6.23 6.227M297.188 700.32a7.355 7.355 0 0 1-7.352 7.36 7.355 7.355 0 0 1-7.352-7.36c0-4.053 3.292-7.347 7.352-7.347 4.06 0 7.352 3.294 7.352 7.347M394.517 846c-7.593 0-13.77 6.177-13.77 13.77 0 7.591 6.177 13.769 13.77 13.769 7.592 0 13.77-6.178 13.77-13.77S402.109 846 394.517 846zm0 31.539c-9.798 0-17.77-7.971-17.77-17.77 0-9.798 7.972-17.769 17.77-17.769 9.799 0 17.77 7.97 17.77 17.77 0 9.798-7.971 17.769-17.77 17.769"/><path fill="#8f9195" d="M401.87 859.77a7.352 7.352 0 0 1-7.353 7.351 7.35 7.35 0 0 1-7.352-7.352 7.352 7.352 0 1 1 14.704 0M119.07 430.56l-.917-3.907a21.145 21.145 0 0 1 9.142-.08l-.848 3.92a16.6 16.6 0 0 0-7.377.067zm18.707 8.787a16.833 16.833 0 0 0-4.66-5.72l2.466-3.147a20.726 20.726 0 0 1 5.777 7.08zm-29.882.253l-3.614-1.707a20.875 20.875 0 0 1 5.656-7.2l2.52 3.107a16.793 16.793 0 0 0-4.562 5.8zm33.57 16.027l-3.605-1.734a16.432 16.432 0 0 0 1.635-7.186l4-.214v.214c0 3.12-.684 6.12-2.03 8.92zm-37.079.106a20.358 20.358 0 0 1-2.078-8.906l4-.027a16.34 16.34 0 0 0 1.673 7.173zm23.143 11.04l-.894-3.893a16.785 16.785 0 0 0 6.633-3.213l2.5 3.12a20.619 20.619 0 0 1-8.239 3.986zm-9.144.027a20.472 20.472 0 0 1-8.262-3.947l2.484-3.133a16.425 16.425 0 0 0 6.649 3.173l-.871 3.907M130.302 446.707c0 4.08-3.314 7.4-7.403 7.4a7.406 7.406 0 0 1-7.402-7.4c0-4.094 3.314-7.4 7.402-7.4a7.397 7.397 0 0 1 7.403 7.4M893.819 1060.045c-11.004 0-19.956 8.951-19.956 19.955 0 11.004 8.952 19.953 19.956 19.953s19.954-8.949 19.954-19.953-8.95-19.955-19.954-19.955zm0 43.908c-13.21 0-23.956-10.746-23.956-23.953 0-13.21 10.746-23.955 23.956-23.955 13.209 0 23.954 10.746 23.954 23.955 0 13.207-10.745 23.953-23.954 23.953"/><path fill="#8f9195" d="M906.607 1080c0 7.064-5.726 12.79-12.79 12.79-7.062 0-12.788-5.726-12.788-12.79 0-7.063 5.726-12.79 12.788-12.79 7.064 0 12.79 5.727 12.79 12.79"/></svg>