<svg xmlns="http://www.w3.org/2000/svg" xmlns:xlink="http://www.w3.org/1999/xlink" width="1280" height="720" xmlns:v="https://vecta.io/nano"><defs><radialGradient fx="0" fy="0" cx="0" cy="0" r="1" gradientUnits="userSpaceOnUse" gradientTransform="matrix(3894.23,0,0,-3894.23,4800,2700)" spreadMethod="pad" id="A"><stop offset="0" stop-color="#fff"/><stop offset=".127" stop-color="#fff"/><stop offset="1" stop-color="#e8e9e9"/></radialGradient><path id="B" d="M343.587 181.644a3.28 3.28 0 1 1 6.14-2.308 3.28 3.28 0 1 1-6.14 2.308"/><path id="C" d="M651.52 45.587a5.5 5.5 0 0 1 7.412-2.355 5.5 5.5 0 0 1 2.355 7.412 5.5 5.5 0 0 1-7.412 2.355 5.5 5.5 0 0 1-2.355-7.412"/></defs><path d="M9600 0H0v5400h9600V0" fill="url(#A)" transform="matrix(.133333 0 0 -.133333 0 720)"/><g fill="#e9eaea"><path d="M664.602 150.845l-244.079-24.079 272.619 188.678zm-246.519-25.456c.083-.032.175-.045.268-.036l246.821 24.351a.6.6 0 0 1 .528.492l28.861 166.446c.041.237-.064.475-.267.604s-.463.124-.66-.012L417.954 126.437c-.224-.155-.315-.441-.221-.695.061-.168.192-.293.351-.353"/><path d="M735.645 117.778L686.672 2.307l-20.817 147.001zM686.173-.46c.041-.015.085-.027.132-.033a.6.6 0 0 1 .627.359l50.039 117.982c.127.299-.008.643-.303.776l-71.309 32.216a.59.59 0 0 1-.604-.065.6.6 0 0 1-.232-.561L685.793.015c.031-.219.179-.399.38-.475M321.579 399.901l95.493-272.275-200.117 152.402zm96.504-274.511c.184-.069.395-.044.559.076.215.155.3.429.213.679l-96.49 275.117c-.071.201-.252.351-.449.388-.209.041-.423-.033-.563-.192L215.638 280.33c-.108-.124-.161-.288-.144-.452a.6.6 0 0 1 .232-.413l202.205-153.992c.047-.036.097-.064.152-.084"/><path d="M320.975 401.023L216.317 281.108 105.628 603.62zM215.878 279.381a.55.55 0 0 1 .095-.027c.209-.041.423.032.564.193l105.714 121.124c.211.243.192.607-.041.827L104.69 606.139a.6.6 0 0 1-.731.066c-.23-.148-.33-.435-.241-.694l111.805-325.764a.6.6 0 0 1 .355-.365"/><path d="M335.07 514.143l-13.716-111.84L106.95 604.012zm-13.477-113.637a.59.59 0 0 1 .411-.003.6.6 0 0 1 .391.488l13.915 113.465c.033.271-.12.528-.373.628L104.5 606.258c-.209.117-.568.007-.721-.233s-.113-.557.095-.755l217.52-204.639c.057-.055.125-.097.199-.124"/><path d="M103.258 606.652l-174.701 55.184 146.962 13.711zm-177.901 54.945l.029-.011 178.716-56.45a.6.6 0 0 1 .618.164c.157.169.202.412.116.627l-28.378 70.477a.6.6 0 0 1-.608.37L-74.489 662.75a.6.6 0 0 1-.537-.531.6.6 0 0 1 .383-.621M361.026 17.155l-103.233 6.753 158.953 100.358zm-105.31 5.721a.6.6 0 0 1 .171-.037l105.45-6.899c.236-.016.459.111.568.32l56.917 109.412a.6.6 0 0 1-.848.779L255.607 23.938c-.219-.139-.324-.4-.26-.652a.59.59 0 0 1 .368-.409"/><path d="M214.89 278.998L138.056 139.18-34.231 211.536zm-76.78-141.134c.277-.104.588.011.732.272l77.768 141.516a.6.6 0 0 1-.677.863l-252.148-68.281c-.247-.065-.422-.283-.439-.536a.6.6 0 0 1 .363-.589l174.401-73.244m560.94 193.02c7.987-3.001 12.041-11.941 9.04-19.928s-11.943-12.041-19.928-9.039-12.041 11.941-9.039 19.928 11.941 12.041 19.927 9.039zm-11.307-30.083c8.6-3.233 18.228 1.133 21.461 9.736s-1.133 18.229-9.735 21.463-18.229-1.135-21.463-9.736 1.133-18.231 9.736-21.463"/><path d="M682.845 320.446a11.5 11.5 0 0 1 6.716-14.807 11.5 11.5 0 0 1 14.807 6.717 11.5 11.5 0 0 1-6.716 14.805 11.5 11.5 0 0 1-14.807-6.716M426.042 145.796c10.969-4.123 16.539-16.401 12.416-27.369s-16.401-16.54-27.371-12.416-16.539 16.403-12.416 27.372 16.403 16.537 27.371 12.413zm-15.375-40.901c11.584-4.355 24.552 1.528 28.907 13.112s-1.528 24.551-13.112 28.905-24.551-1.527-28.905-13.111 1.527-24.552 13.111-28.907m13.427 35.723a15.74 15.74 0 0 0 9.183-20.244 15.74 15.74 0 0 0-20.244-9.184c-8.113 3.051-12.232 12.132-9.183 20.245a15.74 15.74 0 0 0 20.244 9.183zm-11.481-30.543c8.729-3.281 18.499 1.151 21.78 9.879s-1.151 18.5-9.879 21.78-18.499-1.151-21.78-9.88 1.151-18.497 9.879-21.779m-4.848 19.889a11.54 11.54 0 0 1 6.74-14.857 11.54 11.54 0 0 1 14.857 6.74 11.54 11.54 0 0 1-6.74 14.857 11.54 11.54 0 0 1-14.857-6.74M252.038 25.611a5.69 5.69 0 0 1 3.325-7.332c2.944-1.105 6.225.383 7.332 3.325s-.383 6.225-3.325 7.333-6.227-.384-7.332-3.327m38.581-3.818a1.93 1.93 0 0 1 3.613-1.359 1.93 1.93 0 1 1-3.613 1.359m20.467-1.306c-.472-1.255.163-2.653 1.417-3.125s2.655.163 3.125 1.417a2.43 2.43 0 0 1-1.417 3.125 2.43 2.43 0 0 1-3.125-1.417m51.764.404c2.413-.907 3.639-3.609 2.732-6.021s-3.609-3.639-6.023-2.732a4.68 4.68 0 0 0-2.729 6.021c.907 2.412 3.608 3.639 6.02 2.732zm-3.709-9.869c3.028-1.137 6.417.4 7.556 3.429s-.399 6.416-3.427 7.555-6.417-.399-7.556-3.427.399-6.419 3.427-7.557"/><path d="M358.135 17.666a3.28 3.28 0 1 1 4.224 1.917 3.28 3.28 0 0 1-4.224-1.917m13.461 25.554a3.28 3.28 0 0 1 6.14-2.309 3.28 3.28 0 0 1-6.14 2.309m-35.165 34.091a3.28 3.28 0 1 1 4.224 1.917 3.28 3.28 0 0 1-4.224-1.917m12.419 109.012a6.24 6.24 0 0 0 3.64-8.024 6.24 6.24 0 0 0-8.024-3.64 6.24 6.24 0 0 0-3.64 8.024 6.24 6.24 0 0 0 8.024 3.64zm-4.804-12.78c3.832-1.44 8.12.505 9.56 4.336s-.505 8.12-4.336 9.56-8.12-.505-9.56-4.336.505-8.12 4.336-9.56"/><use xlink:href="#B"/><use xlink:href="#B" x="-65.773" y="50.077"/><path d="M218.222 285.826c3.151-1.184 4.751-4.712 3.567-7.864s-4.712-4.751-7.863-3.567-4.752 4.713-3.568 7.864 4.712 4.752 7.864 3.567zm-4.716-12.545a7.31 7.31 0 0 1 9.399 4.263 7.31 7.31 0 0 1-4.263 9.399 7.31 7.31 0 0 1-9.399-4.264 7.31 7.31 0 0 1 4.263-9.397m-1.533 8.371a4.38 4.38 0 0 1 2.559-5.643c2.265-.852 4.792.295 5.644 2.559s-.295 4.792-2.56 5.644a4.38 4.38 0 0 1-5.643-2.56m-78.621-22.543c-.501-1.332.173-2.819 1.505-3.319a2.58 2.58 0 0 1 3.319 1.505c.502 1.332-.173 2.817-1.505 3.319s-2.819-.172-3.319-1.505m-17.357-4.213c-.626-1.667.217-3.525 1.884-4.152a3.22 3.22 0 0 1 4.151 1.883c.626 1.667-.217 3.525-1.883 4.152s-3.525-.216-4.152-1.883m-11.876-3.74a2.58 2.58 0 0 1 1.506-3.32 2.58 2.58 0 0 1 3.319 1.505 2.58 2.58 0 0 1-1.506 3.32 2.58 2.58 0 0 1-3.319-1.505m60.673-56.957c-.713-1.899.247-4.016 2.145-4.729s4.017.247 4.731 2.144-.247 4.017-2.145 4.731-4.017-.247-4.731-2.145m8.19 12.826c-.501-1.332.173-2.819 1.505-3.319a2.58 2.58 0 0 1 3.319 1.505c.502 1.332-.173 2.817-1.505 3.319s-2.819-.173-3.319-1.505m13.814 20.652a3.38 3.38 0 0 0 1.971-4.344 3.38 3.38 0 0 0-4.345-1.971 3.38 3.38 0 0 0-1.971 4.345 3.38 3.38 0 0 0 4.345 1.969zm-2.793-7.429a4.57 4.57 0 0 1 5.88 2.667 4.57 4.57 0 0 1-2.668 5.879 4.57 4.57 0 0 1-5.879-2.667 4.57 4.57 0 0 1 2.667-5.879"/><path d="M183.196 225.428a2.58 2.58 0 0 1 1.507-3.319 2.58 2.58 0 0 1 3.319 1.505 2.58 2.58 0 0 1-1.505 3.32 2.58 2.58 0 0 1-3.32-1.507m-110.564 17.8c-.638-1.697.221-3.591 1.919-4.229s3.592.221 4.23 1.919-.22 3.592-1.918 4.229-3.592-.22-4.231-1.919m-4.491-69.846a5.06 5.06 0 0 0 2.949-6.503c-.979-2.606-3.896-3.929-6.501-2.949s-3.929 3.897-2.95 6.501a5.06 5.06 0 0 0 6.503 2.951zm-3.972-10.568a6.25 6.25 0 0 1 8.037 3.645 6.25 6.25 0 0 1-3.645 8.039 6.25 6.25 0 0 1-8.038-3.647 6.25 6.25 0 0 1 3.646-8.037m-.879 6.998c-.638-1.699.221-3.592 1.919-4.229s3.592.22 4.23 1.919-.221 3.591-1.919 4.229-3.592-.22-4.23-1.919"/><path d="M33.953 182.039c-.638-1.697.221-3.592 1.919-4.229s3.592.22 4.23 1.919-.221 3.592-1.918 4.231-3.592-.221-4.231-1.92m106.076-38.909c2.508-.943 3.781-3.749 2.839-6.257s-3.751-3.781-6.257-2.839-3.781 3.749-2.839 6.257 3.749 3.781 6.257 2.839zm-3.839-10.212a6.06 6.06 0 0 1 7.793 3.535 6.06 6.06 0 0 1-3.536 7.793 6.06 6.06 0 0 1-7.792-3.535 6.06 6.06 0 0 1 3.534-7.793"/><path d="M135.245 139.739c-.639-1.699.221-3.592 1.919-4.231s3.592.22 4.231 1.919-.221 3.592-1.92 4.231-3.591-.221-4.229-1.919"/><use xlink:href="#B" x="-45.654" y="34.849"/><path d="M381.287 239.823c2.212-.832 3.336-3.308 2.505-5.52s-3.309-3.336-5.521-2.504-3.335 3.308-2.504 5.52a4.29 4.29 0 0 0 5.52 2.504zm-3.435-9.14c2.827-1.063 5.992.373 7.055 3.201s-.373 5.992-3.2 7.055-5.992-.373-7.055-3.2.372-5.993 3.2-7.056M362.14 278.71a2.96 2.96 0 0 1 1.728-3.811 2.96 2.96 0 0 1 3.809 1.729 2.96 2.96 0 0 1-1.728 3.809 2.96 2.96 0 0 1-3.809-1.728m-3.836 11.547a2.96 2.96 0 0 1 1.728-3.809 2.96 2.96 0 0 1 3.809 1.728 2.96 2.96 0 0 1-1.728 3.809 2.96 2.96 0 0 1-3.809-1.728m-33.206 119.843c4.991-1.876 7.525-7.461 5.649-12.453s-7.464-7.525-12.455-5.649-7.525 7.464-5.649 12.455 7.464 7.524 12.455 5.648zm-7.224-19.219c5.607-2.107 11.881.74 13.988 6.345s-.737 11.883-6.344 13.989a10.88 10.88 0 0 1-13.991-6.345 10.88 10.88 0 0 1 6.347-13.989"/><path d="M317.19 402.743c-.936-2.491.324-5.265 2.812-6.201s5.264.324 6.199 2.813-.323 5.264-2.812 6.199-5.264-.323-6.199-2.811m-62.051 58.454c-.935-2.489.324-5.264 2.812-6.2s5.265.324 6.2 2.812-.324 5.265-2.812 6.2-5.264-.323-6.2-2.812m-95.05-29.859c-.935-2.488.324-5.263 2.812-6.199s5.265.324 6.2 2.812-.324 5.264-2.812 6.199-5.264-.324-6.2-2.812m-1.448 28.687a6.46 6.46 0 0 0 3.767-8.304 6.46 6.46 0 0 0-8.304-3.767c-3.327 1.251-5.016 4.976-3.765 8.303s4.975 5.019 8.303 3.768zm-4.956-13.185a7.65 7.65 0 0 1 9.839 4.463 7.65 7.65 0 0 1-4.464 9.837 7.65 7.65 0 0 1-9.837-4.463 7.65 7.65 0 0 1 4.463-9.837"/><path d="M151.868 455.683c-.936-2.488.324-5.265 2.812-6.2s5.264.323 6.199 2.812-.323 5.264-2.812 6.2-5.264-.324-6.199-2.812m-8.34 24.508c-.936-2.489.324-5.265 2.812-6.2s5.264.323 6.2 2.813-.324 5.263-2.813 6.199-5.263-.324-6.199-2.812m195.651 44.049c5.369-2.019 8.096-8.029 6.077-13.397s-8.028-8.093-13.396-6.076-8.095 8.028-6.077 13.396a10.42 10.42 0 0 0 13.396 6.077zm-7.739-20.589a11.61 11.61 0 0 1 14.932 6.772c2.249 5.985-.789 12.683-6.773 14.933s-12.683-.791-14.932-6.773a11.61 11.61 0 0 1 6.773-14.932m6.358 16.913c3.341-1.257 5.039-4.997 3.783-8.339s-4.997-5.039-8.339-3.783-5.04 4.997-3.783 8.339 4.997 5.039 8.339 3.783zm-4.976-13.237a7.68 7.68 0 0 1 9.875 4.479 7.68 7.68 0 0 1-4.479 9.875 7.68 7.68 0 0 1-9.875-4.48c-1.488-3.956.521-8.387 4.479-9.873"/><path d="M331.014 516.197c-.935-2.488.324-5.264 2.812-6.199s5.264.324 6.2 2.812-.324 5.264-2.812 6.2-5.264-.324-6.2-2.813m-91.064-28.184a7.83 7.83 0 0 0 4.565-10.065c-1.516-4.032-6.031-6.081-10.064-4.565a7.83 7.83 0 0 0-4.565 10.065c1.516 4.033 6.031 6.081 10.064 4.565zm-5.919-15.747a9.02 9.02 0 0 1 11.6 5.263 9.02 9.02 0 0 1-5.261 11.599 9.02 9.02 0 0 1-11.6-5.261 9.02 9.02 0 0 1 5.261-11.6"/><path d="M232.695 482.391c-.936-2.488.324-5.264 2.812-6.199a4.81 4.81 0 0 1 6.199 2.811c.936 2.488-.323 5.264-2.812 6.199a4.81 4.81 0 0 1-6.199-2.811M109.058 614.734c5.422-2.039 8.174-8.108 6.137-13.531a10.52 10.52 0 0 0-13.53-6.138 10.52 10.52 0 0 0-6.137 13.531 10.52 10.52 0 0 0 13.53 6.137zm-7.811-20.783c6.036-2.269 12.795.796 15.064 6.833s-.796 12.796-6.833 15.066-12.795-.796-15.065-6.833.796-12.796 6.834-15.066m-2.939 13.6c-1.464-3.896.507-8.24 4.402-9.704s8.24.506 9.704 4.403-.506 8.239-4.401 9.704-8.24-.506-9.705-4.403m-26.121 69.857a3.97 3.97 0 0 1 2.318-5.109 3.97 3.97 0 0 1 5.109 2.318c.771 2.051-.267 4.337-2.317 5.108s-4.339-.265-5.109-2.316m-52.137-5.573c-.406-1.08.14-2.283 1.218-2.688a2.09 2.09 0 0 1 2.689 1.219c.406 1.08-.14 2.283-1.22 2.688s-2.282-.139-2.687-1.219m-11.284-.721a2.69 2.69 0 0 1 1.571-3.464 2.69 2.69 0 0 1 3.462 1.572 2.69 2.69 0 0 1-1.57 3.463 2.69 2.69 0 0 1-3.462-1.571M376.71 236.964a3.28 3.28 0 0 1 6.14-2.308 3.28 3.28 0 1 1-6.14 2.308M320.349 67.436a3.28 3.28 0 1 1 6.14-2.308 3.28 3.28 0 0 1-6.14 2.308m284.269 192.79c-1.029-2.739.356-5.792 3.095-6.821a5.3 5.3 0 0 1 6.821 3.095c1.029 2.737-.356 5.791-3.093 6.82a5.3 5.3 0 0 1-6.823-3.093m50.32-114.492l1.087.492c-1.108 2.444-1.197 5.173-.253 7.685a9.99 9.99 0 0 0 5.26 5.62l-.463 1.099-.029-.013a11.18 11.18 0 0 1-5.884-6.285 11.17 11.17 0 0 1 .283-8.597zm14.88-5.612l.049.024c2.703 1.225 4.791 3.457 5.848 6.269a11.18 11.18 0 0 1-.275 8.581l-1.087-.491c1.101-2.44 1.188-5.165.245-7.672-.945-2.513-2.812-4.509-5.259-5.62l.477-1.092m-2.146 16.859a7.07 7.07 0 0 0 4.124-9.092 7.07 7.07 0 0 0-9.092-4.124 7.07 7.07 0 0 0-4.124 9.092 7.07 7.07 0 0 0 9.092 4.124zm-5.388-14.332c4.259-1.6 9.027.561 10.628 4.82s-.561 9.027-4.821 10.628-9.025-.563-10.627-4.82.563-9.027 4.82-10.628m-2.053 9.588c-1.031-2.739.355-5.792 3.093-6.821a5.3 5.3 0 0 1 6.821 3.093 5.3 5.3 0 0 1-3.095 6.823 5.3 5.3 0 0 1-6.82-3.095m72.934-33.074a3.31 3.31 0 0 1 1.932-4.26 3.31 3.31 0 0 1 4.261 1.932 3.31 3.31 0 0 1-1.933 4.261 3.31 3.31 0 0 1-4.26-1.933m-63.728-14.464a2.46 2.46 0 0 1 1.436-3.168 2.46 2.46 0 0 1 3.168 1.436 2.46 2.46 0 0 1-1.437 3.168 2.46 2.46 0 0 1-3.167-1.436m1.399-13.255a2.93 2.93 0 0 1 1.713-3.777c1.516-.569 3.207.196 3.777 1.713a2.93 2.93 0 1 1-5.49 2.064m3.464-16.882a1.66 1.66 0 1 1 3.108-1.167 1.66 1.66 0 1 1-3.108 1.167"/><path d="M678.334 66.794c1.475-.555 2.225-2.207 1.671-3.683s-2.207-2.225-3.683-1.671a2.86 2.86 0 0 0-1.669 3.683c.556 1.476 2.207 2.224 3.681 1.671zm-2.431-6.469a4.06 4.06 0 0 1 5.217 2.368c.785 2.091-.276 4.431-2.368 5.216s-4.431-.276-5.216-2.365a4.06 4.06 0 0 1 2.367-5.219m-.129 4.375a1.66 1.66 0 1 1 3.108-1.168 1.66 1.66 0 0 1-3.108 1.168m13.335-56.938a7.38 7.38 0 0 0 4.307-9.495c-1.431-3.804-5.689-5.736-9.496-4.305a7.38 7.38 0 0 0-4.305 9.493 7.38 7.38 0 0 0 9.495 4.307zm-5.608-14.916c4.42-1.661 9.368.583 11.029 5.003s-.583 9.368-5.003 11.029-9.368-.583-11.029-5.003.584-9.368 5.003-11.029m-.533 9.349a3.79 3.79 0 0 1 2.213-4.88 3.79 3.79 0 0 1 4.88 2.213 3.79 3.79 0 0 1-2.213 4.88 3.79 3.79 0 0 1-4.88-2.213m9.789 21.94l1.088.489a4.15 4.15 0 0 0 2.083 5.52l-.448 1.107-.044-.021a5.33 5.33 0 0 1-2.808-3c-.503-1.337-.456-2.789.129-4.095zm7.093-2.696l.021.011a5.33 5.33 0 0 1 2.808 3 5.34 5.34 0 0 1-.119 4.071l-1.089-.484c.448-1.008.481-2.133.093-3.167-.393-1.045-1.169-1.873-2.185-2.335l.471-1.096m-4.704 5.844a2.68 2.68 0 0 1 1.565-3.451 2.68 2.68 0 0 1 3.449 1.565 2.68 2.68 0 0 1-1.565 3.449 2.68 2.68 0 0 1-3.449-1.564m4.55 12.648a3.34 3.34 0 1 1 4.302 1.952c-1.727.648-3.652-.225-4.303-1.952m15.73 40.124a4.43 4.43 0 0 1 2.587-5.701c2.288-.86 4.841.297 5.7 2.587s-.296 4.841-2.585 5.701a4.43 4.43 0 0 1-5.701-2.587M582.937 244.2a6.17 6.17 0 0 0 3.6-7.937 6.17 6.17 0 0 0-7.937-3.6 6.17 6.17 0 0 0-3.6 7.936 6.17 6.17 0 0 0 7.937 3.601zm-4.757-12.653c3.797-1.427 8.045.5 9.473 4.296s-.501 8.047-4.297 9.473-8.045-.501-9.472-4.297.501-8.045 4.296-9.472m-.359 7.992a3.15 3.15 0 0 1 1.84-4.055 3.15 3.15 0 0 1 4.055 1.84 3.15 3.15 0 0 1-1.84 4.053 3.15 3.15 0 0 1-4.055-1.839"/></g><g fill="#f4f6f5"><path d="M1349.09 772.258l-243.629-330.583 70.88 550.573zm-244.651-335.162c.133.069.252.168.344.295l246.361 334.296c.267.358.253.855-.027 1.208l-174.676 222.458a1 1 0 0 1-1.051.345.99.99 0 0 1-.724-.835l-71.677-556.753a1 1 0 0 1 .617-1.055c.277-.111.581-.089.832.04"/><path d="M654.826 624.748l445.699-186.401-413.863-78.094zm449.612-187.651c.292.152.497.441.532.781.048.439-.199.856-.608 1.027L654.017 627.25c-.331.136-.72.079-.988-.125-.283-.214-.432-.563-.391-.916l32.169-267.253a1.01 1.01 0 0 1 .401-.685.99.99 0 0 1 .775-.173l418.18 78.906a.97.97 0 0 1 .275.093"/><path d="M652.754 625.255l31.848-264.585-525.215 223.809zm33.504-267.065a.99.99 0 0 1 .141.088 1 1 0 0 1 .392.917l-32.169 267.253a1 1 0 0 1-1.075.875l-498.343-41.186c-.455-.041-.828-.383-.903-.835a1 1 0 0 1 .593-1.079l530.513-226.065c.276-.119.588-.103.849.032"/><path d="M527.849 769.577L651.586 627.16l-491.204-40.597zm126.24-144.134a.99.99 0 0 1 .465.509 1 1 0 0 1-.171 1.031L528.849 771.469a1 1 0 0 1-1.199.237L154.842 586.034c-.38-.129-.645-.7-.516-1.161s.565-.765 1.043-.725l498.344 41.187c.133.012.26.048.376.109"/><path d="M152.958 584.93l-264.451-155.448L36.174 627.646zm-267.74-159.693l.046.024 270.529 159.02a1 1 0 0 1 .488.951c-.035.385-.288.715-.651.847L36.161 629.775a1 1 0 0 1-1.143-.34l-151.06-202.717c-.284-.38-.26-.909.057-1.261a1 1 0 0 1 1.203-.22M1175.11 244.815L1051.003 123.98l53.335 310.197zm-125.152-124.577a.99.99 0 0 1 .236.172l126.774 123.429c.284.277.379.693.239 1.065l-72.293 193.429a1 1 0 0 1-1.028.644c-.448-.045-.815-.38-.891-.825l-54.479-316.858c-.075-.427.135-.852.517-1.053a1 1 0 0 1 .924-.003"/><path d="M685.63 356.532l87.788-252.283L490.313-28.946zm89.485-253.69a1 1 0 0 1 .484 1.215l-88.856 255.347c-.133.377-.477.64-.879.668a1 1 0 0 1-.955-.543L487.221-30.634a1 1 0 0 1 1.316-1.355l286.545 134.814c.011.004.023.012.033.016m312.861 367.029c17.424 9.023 38.939 2.188 47.96-15.233s2.188-38.94-15.236-47.961-38.939-2.187-47.96 15.237-2.187 38.936 15.236 47.957zm33.643-64.967c18.4 9.528 25.619 32.248 16.089 50.651s-32.248 25.617-50.649 16.088-25.619-32.248-16.091-50.648 32.249-25.619 50.651-16.091m-29.383 56.742c12.887 6.673 28.799 1.619 35.472-11.269s1.619-28.8-11.268-35.472-28.801-1.619-35.473 11.268-1.617 28.801 11.269 35.473zm25.123-48.513c13.863 7.177 19.301 24.299 12.121 38.163s-24.297 19.303-38.163 12.124-19.301-24.3-12.124-38.164 24.3-19.303 38.165-12.123m-30.173 16.259a19.32 19.32 0 0 1 26.035-8.271 19.32 19.32 0 0 1 8.271 26.035 19.32 19.32 0 0 1-26.035 8.271 19.32 19.32 0 0 1-8.271-26.035"/><path d="M1042.435 118.73c2.421-4.675 8.173-6.501 12.848-4.081s6.503 8.173 4.081 12.848-8.172 6.503-12.848 4.081-6.501-8.173-4.081-12.848m47.993 43.709c.821-1.585 2.772-2.205 4.357-1.384s2.204 2.771 1.384 4.356-2.772 2.204-4.357 1.383-2.204-2.771-1.384-4.355m24.565 23.992c1.032-1.993 3.484-2.772 5.476-1.74a4.06 4.06 0 0 1 1.74 5.477c-1.031 1.992-3.483 2.771-5.476 1.739s-2.771-3.484-1.74-5.476m57.519 64.837a7.84 7.84 0 0 0 10.549-3.349 7.84 7.84 0 0 0-3.351-10.552 7.84 7.84 0 0 0-10.551 3.353 7.84 7.84 0 0 0 3.352 10.548zm8.116-15.673c4.811 2.491 6.697 8.429 4.205 13.24s-8.428 6.696-13.24 4.205-6.695-8.428-4.205-13.237a9.84 9.84 0 0 1 13.24-4.208"/><path d="M1171.236 241.793a5.49 5.49 0 0 1 7.4-2.352c2.693 1.395 3.747 4.708 2.352 7.401s-4.708 3.745-7.403 2.352a5.49 5.49 0 0 1-2.349-7.401m-16.696 45.384c1.395-2.692 4.708-3.745 7.401-2.351a5.49 5.49 0 0 1 2.352 7.401c-1.395 2.693-4.709 3.745-7.403 2.351a5.49 5.49 0 0 1-2.351-7.401m-81.819-5.529c1.395-2.692 4.708-3.745 7.401-2.351s3.745 4.708 2.351 7.401a5.491 5.491 0 1 1-9.752-5.051M951.048 419.281c5.108 2.644 11.416.641 14.061-4.468s.64-11.415-4.468-14.06-11.415-.641-14.06 4.467-.641 11.416 4.467 14.061zm10.512-20.3c6.085 3.152 8.472 10.665 5.321 16.751s-10.665 8.472-16.749 5.321a12.45 12.45 0 0 1-5.323-16.751c3.15-6.084 10.664-8.473 16.751-5.321"/><path d="M950.97 407.491c1.393-2.693 4.708-3.745 7.401-2.352s3.745 4.709 2.351 7.401-4.708 3.747-7.401 2.352-3.745-4.708-2.351-7.401m-136.008-25.683a5.49 5.49 0 0 1 7.4-2.351c2.693 1.395 3.747 4.708 2.352 7.401s-4.708 3.745-7.401 2.351a5.49 5.49 0 0 1-2.351-7.401M680.869 368.33a10.24 10.24 0 0 0 13.779-4.379c2.592-5.005.628-11.185-4.377-13.777a10.24 10.24 0 0 0-13.779 4.376 10.24 10.24 0 0 0 4.377 13.78zm10.32-19.928c5.983 3.099 8.329 10.485 5.231 16.467s-10.485 8.331-16.468 5.233a12.24 12.24 0 0 1-5.232-16.469c3.097-5.983 10.485-8.328 16.469-5.231m-12.133 7.476a7.34 7.34 0 0 1 9.888-3.14c3.597 1.864 5.004 6.289 3.14 9.888s-6.289 5.004-9.888 3.14a7.34 7.34 0 0 1-3.14-9.888M618.972 232.82c1.096-2.116 3.7-2.943 5.816-1.847s2.944 3.699 1.848 5.816a4.32 4.32 0 0 1-5.816 1.848 4.32 4.32 0 0 1-1.848-5.817m-14.212-26.311a5.4 5.4 0 0 1 7.275-2.311 5.4 5.4 0 0 1 2.312 7.275 5.4 5.4 0 0 1-7.276 2.311 5.4 5.4 0 0 1-2.311-7.275m-8.659-18.962c1.096-2.117 3.7-2.944 5.816-1.848s2.944 3.7 1.848 5.816a4.32 4.32 0 0 1-5.816 1.848c-2.116-1.096-2.944-3.7-1.848-5.816m138.848 11.625a6.15 6.15 0 1 1 2.633 8.29 6.15 6.15 0 0 1-2.633-8.289"/><path d="M728.176 223.736c1.096-2.116 3.699-2.943 5.816-1.847s2.943 3.699 1.848 5.815-3.701 2.944-5.816 1.848a4.32 4.32 0 0 1-1.848-5.816m-10.206 40.33c2.765 1.432 6.18.347 7.612-2.419s.347-6.18-2.419-7.612-6.18-.347-7.612 2.417-.348 6.181 2.419 7.613zm6.112-11.803a7.65 7.65 0 0 1 3.272 10.301c-1.939 3.742-6.559 5.212-10.301 3.273s-5.212-6.559-3.273-10.303 6.559-5.211 10.303-3.272"/><path d="M716.736 257.066c1.096-2.116 3.7-2.943 5.816-1.847s2.944 3.699 1.848 5.815-3.7 2.944-5.817 1.848-2.943-3.699-1.847-5.816M570.673 139.495a5.5 5.5 0 0 1 7.412-2.355c2.697 1.397 3.752 4.716 2.356 7.413a5.5 5.5 0 0 1-7.413 2.355c-2.696-1.397-3.752-4.716-2.355-7.413m81.844-83.872c4.137 2.143 9.249.517 11.393-3.621s.517-9.249-3.62-11.392-9.251-.52-11.393 3.619a8.47 8.47 0 0 0 3.62 11.395zm8.691-16.785c5.116 2.649 7.123 8.967 4.475 14.081a10.47 10.47 0 0 1-14.084 4.476c-5.116-2.648-7.124-8.968-4.473-14.085a10.46 10.46 0 0 1 14.083-4.472"/><use xlink:href="#C"/><use xlink:href="#C" x="-48.094" y="-22.785"/><path d="M770.715 111.131a8.15 8.15 0 0 0 10.967-3.481 8.15 8.15 0 0 0-3.485-10.967c-3.984-2.064-8.901-.5-10.964 3.484s-.501 8.901 3.483 10.964zm8.4-16.22c4.961 2.568 6.908 8.695 4.339 13.656s-8.695 6.905-13.656 4.336-6.905-8.693-4.337-13.653 8.695-6.908 13.655-4.339m-9.542 6.468a5.5 5.5 0 1 1 9.767 5.057c-1.396 2.696-4.715 3.751-7.413 2.355a5.5 5.5 0 0 1-2.353-7.412m86.876 288.384c1.395-2.692 4.707-3.745 7.401-2.351a5.49 5.49 0 1 1-7.402 2.35m64.41 129.829c3.515 1.821 7.855.441 9.673-3.071a7.19 7.19 0 0 0-3.072-9.673 7.19 7.19 0 0 0-9.673 3.072 7.19 7.19 0 0 0 3.072 9.672zm7.519-14.516c4.491 2.325 6.253 7.872 3.927 12.363s-7.871 6.252-12.361 3.925-6.253-7.869-3.928-12.36 7.872-6.253 12.363-3.928m-77.349 34.288a4.95 4.95 0 0 1 6.675-2.12c2.429 1.257 3.377 4.245 2.12 6.675a4.95 4.95 0 0 1-6.675 2.12c-2.428-1.257-3.377-4.245-2.12-6.675m-18.661 8.169c1.259-2.428 4.247-3.377 6.675-2.12s3.379 4.245 2.121 6.675a4.95 4.95 0 0 1-6.675 2.12c-2.429-1.257-3.379-4.245-2.121-6.675m-186.286 93.024c7.929 4.106 17.72.996 21.824-6.932s.996-17.717-6.933-21.822-17.717-.996-21.823 6.932-.995 17.717 6.932 21.822zm15.809-30.528c8.905 4.612 12.399 15.609 7.787 24.513s-15.607 12.399-24.512 7.787-12.399-15.608-7.788-24.512 15.607-12.399 24.513-7.788m-15.52 12.444a8.06 8.06 0 1 1 3.451 10.864 8.06 8.06 0 0 1-3.451-10.864m-142.256-11.661a8.06 8.06 0 1 1 14.315 7.414c-2.047 3.952-6.911 5.497-10.864 3.451s-5.497-6.911-3.451-10.864M434.72 459.119a8.06 8.06 0 1 1 14.313 7.411 8.06 8.06 0 0 1-14.313-7.411m-37.304 30.351a10.81 10.81 0 0 0 14.549-4.623 10.81 10.81 0 0 0-4.623-14.549 10.81 10.81 0 0 0-14.547 4.623 10.81 10.81 0 0 0 4.62 14.549zm10.845-20.944c6.263 3.243 8.719 10.976 5.476 17.239s-10.976 8.72-17.239 5.477-8.719-10.976-5.475-17.239 10.975-8.72 17.237-5.477m-13.037 7.652c2.048-3.952 6.911-5.497 10.863-3.451a8.06 8.06 0 0 1 3.452 10.863c-2.047 3.952-6.911 5.497-10.864 3.451a8.06 8.06 0 0 1-3.451-10.863m-39.831 17.096a8.06 8.06 0 0 1 14.313 7.413 8.06 8.06 0 0 1-14.313-7.413m98.347 128.7c6.407 3.319 14.317.805 17.636-5.602a13.1 13.1 0 0 0-5.603-17.634 13.1 13.1 0 0 0-17.636 5.603 13.1 13.1 0 0 0 5.603 17.633zm12.951-25.008a15.1 15.1 0 0 1 6.457 20.326 15.1 15.1 0 0 1-20.325 6.456c-7.384-3.824-10.281-12.942-6.457-20.326a15.1 15.1 0 0 1 20.325-6.456"/><path d="M452.599 606.65a8.06 8.06 0 1 1 14.313 7.412 8.06 8.06 0 0 1-14.313-7.412m-303.19-5.45c8.612 4.46 19.247 1.081 23.707-7.531s1.081-19.249-7.531-23.708-19.248-1.081-23.708 7.532-1.081 19.248 7.532 23.707zm17.093-33.011c9.589 4.965 13.352 16.808 8.385 26.397s-16.807 13.352-26.396 8.385-13.353-16.806-8.387-26.396 16.808-13.353 26.397-8.387m-20.207 11.592c3.204-6.188 10.816-8.605 17.004-5.401a12.62 12.62 0 0 1 5.401 17.004 12.62 12.62 0 0 1-17.004 5.401 12.62 12.62 0 0 1-5.401-17.004M30.127 625.587c1.687-3.257 5.694-4.531 8.953-2.843a6.64 6.64 0 1 1-6.109 11.795c-3.257-1.685-4.531-5.693-2.844-8.952m889.159-114.892c1.395-2.693 4.708-3.747 7.401-2.352s3.745 4.708 2.351 7.401a5.491 5.491 0 1 1-9.752-5.049m147.69-260.119c1.395-2.693 4.709-3.745 7.403-2.352a5.49 5.49 0 1 1-5.05 9.753c-2.692-1.395-3.745-4.708-2.352-7.401"/></g><g fill="#e9eaea"><path d="M164.51 188.437l51.649 209.455 76.461-281.417zm51.223 211.882c-.051-.06-.088-.131-.108-.212l-52.228-211.806c-.057-.228.047-.467.252-.583l129.548-72.769c.185-.103.413-.087.58.044s.239.347.184.551l-77.32 284.577c-.063.229-.275.389-.512.387-.157-.003-.3-.073-.396-.188"/><path d="M116.245 139.232l-81.377 74.489 128-25.871zM32.72 214.947a.6.6 0 0 1-.067-.1c-.106-.211-.06-.465.115-.624l83.147-76.11c.21-.192.535-.181.733.024l47.636 49.677a.52.52 0 0 1 .123.52.53.53 0 0 1-.397.357L33.224 215.123c-.19.039-.383-.032-.505-.176m438.953 184.85l-253.787.705 185.086 121.22zm-255.939.523a.52.52 0 0 1-.101-.485c.065-.223.269-.375.501-.376l256.437-.712a.53.53 0 0 1 .453.259c.095.161.096.36.005.523L403.61 522.724a.53.53 0 0 1-.333.252c-.14.035-.289.008-.411-.071L215.847 400.421a.49.49 0 0 1-.115-.101"/><path d="M472.779 399.967l-68.724 121.966 299.903-2.847zm-70.028 122.837l-.049-.071c-.096-.161-.097-.361-.005-.525l69.417-123.196c.139-.247.447-.337.697-.208l233.51 120.322c.212.111.324.351.269.585s-.264.401-.505.404l-302.927 2.875a.53.53 0 0 1-.407-.187"/><path d="M562.444 355.089l-88.713 44.188 230.165 118.6zm-90.274 44.519a.53.53 0 0 1-.123-.341c.001-.197.115-.377.291-.465l90.001-44.831c.215-.108.473-.055.631.125l143.506 165.153c.159.14.172.469.017.668s-.428.257-.652.141l-233.51-120.322a.54.54 0 0 1-.161-.128"/><path d="M707.168 520.163l97.017 128.67-31.752-125.882zm97.758 131.393c-.007-.006-.012-.015-.017-.021l-99.246-131.626a.52.52 0 0 1-.045-.56c.095-.18.284-.288.485-.28l66.766 2.851a.53.53 0 0 1 .487.396l32.48 128.776c.061.241-.057.493-.281.601-.217.104-.475.046-.628-.136M142.728 479.389l35.889 83.618 36.577-161.249zm35.643 85.644c-.033-.037-.06-.081-.081-.129l-36.66-85.416c-.081-.191-.044-.412.099-.565l74.024-79.297c.161-.172.419-.216.628-.105a.52.52 0 0 1 .265.579l-37.363 164.713a.53.53 0 0 1-.464.407.52.52 0 0 1-.448-.185m224.352-41.3l-93.392 104.736L419.88 750.1zM308.225 628.81a.52.52 0 0 1 .011-.685l94.526-106.008c.14-.156.36-.215.56-.147a.52.52 0 0 1 .353.455L421.04 751.54c.017.223-.111.432-.316.521s-.444.036-.595-.129L308.225 628.811"/></g><g fill="#8f9195"><path d="M303.69 107.048a13.63 13.63 0 0 0-19.176-1.649 13.63 13.63 0 0 0-1.649 19.177 13.63 13.63 0 0 0 19.177 1.648c5.741-4.832 6.481-13.435 1.648-19.176zm-21.627 18.203a14.68 14.68 0 0 1 1.775-20.653 14.68 14.68 0 0 1 20.655 1.775 14.68 14.68 0 0 1-1.776 20.655c-6.184 5.204-15.449 4.408-20.653-1.776m17.726-1.704c-4.273 3.596-10.652 3.048-14.248-1.224s-3.048-10.652 1.224-14.248 10.652-3.048 14.248 1.224 3.048 10.652-1.224 14.248m-69.471 264.185c-6.637-7.885-18.453-8.901-26.337-2.264s-8.901 18.452-2.264 26.337 18.452 8.901 26.337 2.264 8.901-18.452 2.264-26.337zm-29.404 24.749c-7.009-8.328-5.937-20.805 2.391-27.816s20.805-5.936 27.816 2.391 5.936 20.805-2.391 27.815a19.77 19.77 0 0 1-27.816-2.389m25.682-21.618c-4.909-5.832-13.648-6.583-19.481-1.672s-6.584 13.648-1.675 19.48 13.648 6.584 19.481 1.675 6.584-13.649 1.675-19.483zm-21.959 18.484c-5.28-6.275-4.472-15.677 1.803-20.959s15.676-4.473 20.957 1.801 4.473 15.676-1.801 20.957-15.676 4.475-20.959-1.8"/><path d="M222.553 407.533a10.15 10.15 0 0 1-14.297-1.228 10.15 10.15 0 0 1 1.229-14.299 10.15 10.15 0 0 1 14.297 1.229 10.15 10.15 0 0 1-1.229 14.297M181.717 567.28a5.01 5.01 0 0 1-7.055-.607 5.01 5.01 0 0 1 .605-7.056 5.01 5.01 0 0 1 7.056.607 5.01 5.01 0 0 1-.607 7.056m-14.486-30.87a1.7 1.7 0 0 1-2.392-.207 1.7 1.7 0 0 1 .205-2.392 1.7 1.7 0 0 1 2.392.205 1.7 1.7 0 0 1-.205 2.393m-7.089-16.588a2.13 2.13 0 0 1-3.007-.257c-.759-.903-.644-2.249.259-3.008s2.248-.643 3.007.259.644 2.248-.259 3.007m-14.853-43.041c-1.46-1.735-4.059-1.959-5.793-.499a4.12 4.12 0 0 0-.499 5.795 4.12 4.12 0 0 0 5.795.497c1.735-1.46 1.957-4.059.497-5.793zm-7.093 5.971a5.17 5.17 0 0 1 .625-7.272c2.178-1.833 5.437-1.551 7.271.627s1.551 5.437-.625 7.269a5.17 5.17 0 0 1-7.271-.624m5.805-1.117c-1.22 1.025-3.039.869-4.065-.349s-.869-3.039.349-4.064a2.89 2.89 0 0 1 4.065.349c1.026 1.218.869 3.039-.349 4.064m17.238-18.66c-1.219 1.027-3.039.869-4.065-.349s-.868-3.039.351-4.064 3.037-.869 4.064.349.869 3.039-.349 4.064m38.586 19.158c-1.219 1.025-3.039.869-4.064-.349s-.871-3.039.349-4.065 3.039-.869 4.064.349a2.89 2.89 0 0 1-.349 4.065m86.748-42.284c-1.947-2.312-5.409-2.609-7.721-.663s-2.611 5.409-.664 7.721a5.49 5.49 0 0 0 7.721.664 5.49 5.49 0 0 0 .664-7.723zm-9.188 7.735a6.54 6.54 0 0 1 .791-9.2 6.54 6.54 0 0 1 9.199.791c2.319 2.753 1.964 6.881-.791 9.199a6.54 6.54 0 0 1-9.199-.789m6.852-2c-1.219 1.027-3.039.871-4.064-.348s-.869-3.04.349-4.065 3.039-.869 4.064.349.871 3.039-.349 4.064m60.822 39.846c-1.22 1.027-3.039.871-4.065-.349s-.869-3.039.349-4.064 3.039-.871 4.065.348.869 3.04-.349 4.065m62.349 33.539a5.38 5.38 0 0 0-7.567-.651 5.38 5.38 0 0 0-.651 7.567 5.38 5.38 0 0 0 7.567.651 5.38 5.38 0 0 0 .651-7.567zm-9.02 7.591a6.43 6.43 0 0 1 .777-9.043 6.43 6.43 0 0 1 9.045.776 6.43 6.43 0 0 1-.779 9.045 6.43 6.43 0 0 1-9.044-.779m7.395-1.185c-1.628 1.372-4.06 1.163-5.431-.465s-1.161-4.06.467-5.431 4.06-1.161 5.431.467 1.161 4.06-.467 5.429m4.376 71.808a2.27 2.27 0 0 1-3.193-.275c-.807-.957-.684-2.388.275-3.194s2.387-.683 3.193.274a2.27 2.27 0 0 1-.275 3.195m1.598 15.627c-1.199 1.009-2.987.856-3.996-.341s-.855-2.989.344-3.996a2.84 2.84 0 0 1 3.996.343c1.008 1.199.853 2.988-.344 3.995m.383 10.944c-.957.807-2.388.684-3.195-.275s-.683-2.388.276-3.193 2.388-.684 3.193.275.683 2.388-.275 3.193"/><path d="M347.11 590.158a3.231 3.231 0 1 1-4.161-4.943 3.231 3.231 0 1 1 4.161 4.943m8.232-10.555c-.957.807-2.388.684-3.193-.275s-.684-2.388.273-3.193a2.27 2.27 0 0 1 3.195.275c.805.957.684 2.388-.275 3.193m13.072-17.515a2.97 2.97 0 0 0-4.18-.357 2.97 2.97 0 0 0-.36 4.18c1.053 1.251 2.929 1.412 4.181.359a2.97 2.97 0 0 0 .359-4.181zm-5.341 4.497a4.02 4.02 0 0 1 .485-5.657 4.02 4.02 0 0 1 5.659.487 4.02 4.02 0 0 1-.487 5.657 4.02 4.02 0 0 1-5.657-.487m4.53-.851c-.957.807-2.387.684-3.193-.273a2.27 2.27 0 0 1 .275-3.195 2.27 2.27 0 0 1 3.193.275c.807.957.683 2.387-.275 3.193m47.2 86.457a2.89 2.89 0 0 1-3.721-4.421 2.89 2.89 0 0 1 3.721 4.421m-56.599 24.217a4.45 4.45 0 0 0-6.257-.539c-1.873 1.578-2.115 4.384-.537 6.257s4.384 2.115 6.256.539a4.45 4.45 0 0 0 .539-6.257zm-7.597 6.395a5.5 5.5 0 0 1 .665-7.735c2.315-1.949 5.784-1.651 7.733.664a5.5 5.5 0 0 1-.664 7.737 5.5 5.5 0 0 1-7.735-.666m6.061-1.326a2.89 2.89 0 1 1 .35-4.07 2.89 2.89 0 0 1-.351 4.07m18.749 20.739a2.89 2.89 0 0 1-4.071-.349 2.89 2.89 0 0 1 .349-4.071 2.89 2.89 0 0 1 4.071.349 2.89 2.89 0 0 1-.349 4.071m-63.386-76.54a4.28 4.28 0 0 0-6.021-.519 4.28 4.28 0 0 0-.517 6.023 4.28 4.28 0 0 0 6.021.516 4.28 4.28 0 0 0 .517-6.02zm-7.341 6.179a5.33 5.33 0 0 1 .645-7.499 5.33 5.33 0 0 1 7.499.644 5.33 5.33 0 0 1-.645 7.498 5.33 5.33 0 0 1-7.499-.644m5.931-1.215a2.89 2.89 0 0 1-3.721-4.422c1.221-1.027 3.044-.869 4.072.351a2.89 2.89 0 0 1-.351 4.072m15.911-157.423c-1.219 1.027-3.039.869-4.064-.349s-.871-3.039.348-4.063 3.04-.871 4.065.348.869 3.04-.349 4.064m-5.113-75.963c-1.339-1.591-3.721-1.795-5.312-.456s-1.796 3.721-.456 5.312 3.721 1.795 5.312.456 1.795-3.721.456-5.312zm-6.571 5.531c-1.711-2.033-1.448-5.079.584-6.789s5.077-1.449 6.789.584 1.448 5.077-.584 6.788-5.079 1.449-6.789-.583m44.433-1.064a2.601 2.601 0 1 1-3.349-3.98 2.601 2.601 0 1 1 3.349 3.98m10.7-.207a2.6 2.6 0 1 1-3.35-3.981 2.6 2.6 0 1 1 3.35 3.981m109.118-7.629a8.52 8.52 0 0 0-11.985-1.029c-3.588 3.02-4.051 8.396-1.029 11.984s8.396 4.051 11.984 1.029a8.52 8.52 0 0 0 1.031-11.984zm-13.817 11.631a9.57 9.57 0 0 1 1.157-13.463c4.031-3.392 10.069-2.873 13.461 1.157s2.873 10.069-1.157 13.461a9.57 9.57 0 0 1-13.461-1.156m10.036-2.914c-1.789 1.507-4.46 1.277-5.965-.512s-1.276-4.46.512-5.965 4.46-1.276 5.967.513a4.23 4.23 0 0 1-.513 5.964m66.675 34.301c-1.789 1.507-4.46 1.276-5.965-.513s-1.276-4.46.513-5.965 4.459-1.276 5.965.513 1.276 4.46-.513 5.965m3.131 87.576c-1.789 1.505-4.46 1.276-5.965-.512a4.24 4.24 0 0 1 .512-5.967c1.788-1.507 4.46-1.276 5.967.513s1.276 4.46-.513 5.965m24.209-7.215c-2.013-2.392-5.597-2.7-7.989-.685a5.68 5.68 0 0 0-.687 7.989 5.68 5.68 0 0 0 7.989.685 5.68 5.68 0 0 0 .687-7.989zm-9.479 7.98a6.73 6.73 0 0 1 .813-9.468 6.73 6.73 0 0 1 9.468.813 6.73 6.73 0 0 1-.815 9.467 6.73 6.73 0 0 1-9.467-.812m7.868-1.09c-1.788 1.505-4.46 1.276-5.965-.513a4.23 4.23 0 0 1 .513-5.964c1.788-1.507 4.459-1.277 5.965.512s1.276 4.46-.513 5.965m22.77-.276c-1.789 1.507-4.46 1.276-5.965-.513s-1.276-4.459.512-5.964 4.46-1.276 5.965.513 1.276 4.459-.512 5.964M569.609 348.72c-3.249-3.86-9.032-4.357-12.891-1.109s-4.357 9.032-1.109 12.892 9.032 4.356 12.892 1.108 4.356-9.032 1.108-12.891zm-14.801 12.457c-3.621-4.303-3.067-10.748 1.235-14.369a10.21 10.21 0 0 1 14.369 1.236c3.621 4.303 3.065 10.748-1.236 14.368s-10.747 3.067-14.368-1.235m12.159-10.233a5.7 5.7 0 0 0-8.024-.691c-2.403 2.023-2.712 5.623-.689 8.025s5.621 2.712 8.024.689a5.7 5.7 0 0 0 .689-8.024zm-9.516 8.009c-2.395-2.844-2.028-7.107.816-9.501s7.108-2.028 9.503.816 2.028 7.108-.817 9.503a6.75 6.75 0 0 1-9.501-.817m7.884-1.105c-1.788 1.507-4.46 1.277-5.965-.512s-1.276-4.46.513-5.965 4.459-1.277 5.965.512 1.276 4.46-.513 5.965"/><path d="M568.684 441.629c-2.44-2.899-6.785-3.272-9.685-.832s-3.272 6.785-.832 9.684 6.785 3.273 9.685.832a6.88 6.88 0 0 0 .832-9.684zm-11.319 9.528c-2.813-3.343-2.383-8.351.959-11.163s8.349-2.383 11.163.96a7.93 7.93 0 0 1-.96 11.161 7.93 7.93 0 0 1-11.161-.959m8.786-1.862c-1.789 1.507-4.46 1.277-5.965-.512a4.24 4.24 0 0 1 .512-5.967c1.788-1.507 4.461-1.276 5.967.513s1.276 4.46-.513 5.965m146.013 63.689c-3.28-3.897-9.121-4.397-13.02-1.119s-4.399 9.123-1.12 13.02 9.123 4.401 13.021 1.12 4.4-9.123 1.119-13.021zm-14.941 12.577c-3.652-4.34-3.093-10.844 1.247-14.497s10.844-3.093 14.497 1.245 3.095 10.844-1.247 14.499a10.3 10.3 0 0 1-14.497-1.247m12.139-1.555c-2.799 2.357-6.98 1.997-9.337-.804a6.63 6.63 0 0 1 .803-9.339 6.63 6.63 0 0 1 9.339.804 6.63 6.63 0 0 1-.804 9.339m65.589 1.163a3.49 3.49 0 0 1-4.495-5.339 3.49 3.49 0 0 1 4.495 5.339m10.677 44.865c-.775.653-1.935.553-2.587-.223s-.553-1.933.223-2.585a1.84 1.84 0 0 1 2.587.221c.654.774.553 1.935-.223 2.587m2.712 9.568c-.999.841-2.491.713-3.332-.287s-.712-2.491.287-3.332 2.491-.712 3.332.287.713 2.491-.287 3.332m4.29 10.516a2.86 2.86 0 0 0-4.028-.347c-1.205 1.015-1.361 2.821-.347 4.028a2.86 2.86 0 0 0 4.028.345 2.86 2.86 0 0 0 .347-4.027zm-5.176 4.356c-1.387-1.648-1.175-4.117.472-5.504s4.119-1.176 5.505.472 1.175 4.117-.472 5.505-4.119 1.174-5.505-.473"/><path d="M791.627 593.362c-.775.652-1.935.553-2.587-.223s-.553-1.934.223-2.586a1.84 1.84 0 0 1 2.587.221c.654.775.553 1.934-.223 2.588m15.964 60.293a3.92 3.92 0 0 1-5.523-.473c-1.393-1.656-1.181-4.129.475-5.524a3.92 3.92 0 0 1 5.048 5.997M320.39 401.889c-1.219 1.027-3.039.869-4.064-.349a2.89 2.89 0 0 1 .349-4.065c1.218-1.026 3.039-.869 4.064.351s.869 3.037-.349 4.064m-124.034 96.475c-1.219 1.027-3.039.871-4.065-.348s-.869-3.04.349-4.065a2.89 2.89 0 0 1 4.065.349c1.026 1.218.869 3.039-.349 4.064m76.451-292.282a4.66 4.66 0 0 1-6.564-.564 4.66 4.66 0 0 1 .564-6.564 4.66 4.66 0 0 1 6.564.564 4.66 4.66 0 0 1-.564 6.564m-109.699-8.132l.089-1.044a8.79 8.79 0 0 0 6.447-2.047c1.806-1.52 2.915-3.656 3.116-6.011l1.047.063-.001.028c-.227 2.633-1.465 5.02-3.487 6.723a9.83 9.83 0 0 1-7.211 2.288zm-9.02-10.692l.007-.048c.223-2.599 1.46-4.987 3.481-6.688a9.84 9.84 0 0 1 7.197-2.291l-.088 1.047a8.78 8.78 0 0 0-9.551 8.056l-1.047-.076"/><path d="M168.697 184.093a6.22 6.22 0 0 0-8.749-.752 6.22 6.22 0 0 0-.752 8.749 6.22 6.22 0 0 0 8.749.753 6.22 6.22 0 0 0 .752-8.751zm-10.303 8.673a7.27 7.27 0 0 1 .879-10.227 7.27 7.27 0 0 1 10.227.879 7.27 7.27 0 0 1-.879 10.227 7.27 7.27 0 0 1-10.227-.879m8.552-1.11a4.66 4.66 0 0 1-6.563-.564 4.66 4.66 0 0 1 .563-6.563 4.66 4.66 0 0 1 6.565.563 4.66 4.66 0 0 1-.565 6.564m-48.823-50.772a2.91 2.91 0 0 1-4.099-.352 2.91 2.91 0 0 1 4.452-3.747 2.91 2.91 0 0 1-.352 4.099m6.702 57.088a2.16 2.16 0 0 1-3.047-.263c-.769-.913-.652-2.279.262-3.048s2.279-.652 3.048.263.652 2.279-.263 3.048m-11.401 2.728a2.58 2.58 0 0 1-3.322-3.947 2.58 2.58 0 0 1 3.634.313 2.58 2.58 0 0 1-.313 3.633m-15.012 2.082a1.46 1.46 0 1 1-1.881-2.233 1.46 1.46 0 1 1 1.881 2.233m-7.627-1.068a2.52 2.52 0 0 0-3.543-.304 2.52 2.52 0 0 0-.305 3.543 2.52 2.52 0 0 0 3.544.304 2.52 2.52 0 0 0 .305-3.543zm-4.651 3.915a3.57 3.57 0 0 1 .432-5.021c1.503-1.265 3.754-1.072 5.02.432s1.071 3.755-.431 5.019a3.57 3.57 0 0 1-5.021-.429m3.667-1.18a1.46 1.46 0 0 1-1.881-2.233 1.46 1.46 0 0 1 1.881 2.233"/><path d="M38.675 210.1a6.49 6.49 0 0 0-9.136-.785c-2.736 2.303-3.087 6.401-.785 9.136s6.401 3.088 9.137.785a6.49 6.49 0 0 0 .785-9.136zm-10.723 9.027a7.54 7.54 0 0 1 .912-10.613c3.178-2.674 7.939-2.265 10.614.912s2.265 7.939-.913 10.613-7.938 2.265-10.613-.912m7.908-2.302c-1.408 1.185-3.51 1.005-4.696-.404a3.33 3.33 0 0 1 5.1-4.292c1.185 1.408 1.005 3.511-.404 4.696m15.322-14.554l.086-1.045a3.65 3.65 0 0 0 3.967-3.348l1.048.047-.004.044c-.108 1.257-.698 2.396-1.664 3.208a4.7 4.7 0 0 1-3.433 1.095zm-4.317-5.091l.002-.021a4.69 4.69 0 0 1 1.665-3.208c.955-.804 2.166-1.193 3.409-1.096l-.081 1.045a3.65 3.65 0 0 0-2.653.852c-.751.633-1.211 1.519-1.295 2.497l-1.046-.069m6.224 2.185c-.996.837-2.482.711-3.32-.285s-.71-2.481.286-3.319 2.481-.711 3.319.285.71 2.481-.285 3.319m9.152-7.484a2.94 2.94 0 0 1-4.139-.355 2.94 2.94 0 0 1 .355-4.139c1.242-1.045 3.094-.887 4.139.355a2.94 2.94 0 0 1-.355 4.139m28.656-24.814c-1.645 1.385-4.101 1.175-5.486-.471s-1.173-4.101.472-5.487 4.101-1.173 5.486.472 1.173 4.101-.471 5.485m174.982 61.698a5.43 5.43 0 0 0-7.639-.656 5.43 5.43 0 0 0-.656 7.637 5.43 5.43 0 0 0 7.637.656 5.43 5.43 0 0 0 .657-7.637zm-9.097 7.656a6.48 6.48 0 0 1 .784-9.115 6.48 6.48 0 0 1 9.115.783 6.48 6.48 0 0 1-.784 9.116 6.48 6.48 0 0 1-9.115-.784m6.733-2.047a2.77 2.77 0 0 1-3.903-.336 2.77 2.77 0 0 1 .336-3.901 2.77 2.77 0 0 1 3.901.336 2.77 2.77 0 0 1-.335 3.901"/></g><g fill="#d3d4d3"><path d="M387.59 159.315l154.128 150.944-83.046-279.543zm155.042 153.232c-.075-.024-.144-.065-.203-.124L386.572 159.784c-.169-.164-.207-.421-.093-.628l71.88-130.044c.103-.185.305-.291.516-.268a.52.52 0 0 1 .445.372l83.978 282.682c.067.229-.028.476-.232.599-.135.081-.293.096-.435.049"/><path d="M320.657 142.865l-30.011 106.162 95.24-89.348zm-31.192 108.333a.46.46 0 0 1-.109-.049c-.201-.123-.296-.364-.232-.591l30.663-108.472c.077-.275.36-.436.636-.364l66.648 17.18c.181.04.329.193.376.377s-.009.383-.148.513l-97.31 91.29c-.143.132-.344.175-.523.115m470.539-73.76L544.556 311.569l221.178 5.7zM542.632 312.546c-.164-.053-.295-.187-.343-.36-.06-.224.032-.46.229-.583l217.695-135.532c.16-.099.368-.101.523-.017a.52.52 0 0 1 .28.441l5.787 141.29c.005.144-.048.285-.151.389a.52.52 0 0 1-.387.156l-223.483-5.76a.48.48 0 0 1-.151-.025"/><path d="M761.035 177l5.731 139.88 253.537-160.216zm5.081 141.305c-.028-.008-.055-.02-.081-.033-.165-.087-.272-.256-.28-.443l-5.787-141.29c-.012-.283.201-.523.483-.544l261.882-20.541c.24-.017.461.129.537.357a.52.52 0 0 1-.217.608L766.559 318.25c-.133.084-.296.103-.443.055"/><path d="M813.673 91.659l-52.191 84.254 258.13-20.245zm-53.344 85.356c-.117-.039-.219-.116-.284-.225-.103-.168-.103-.38.001-.548l52.949-85.478c.127-.204.373-.296.601-.225l208.933 64.939c.208.036.393.308.365.559s-.229.444-.48.464L760.533 177.04a.53.53 0 0 1-.204-.025"/><path d="M1023.599 155.891l150.204 58.373-93.234-90.344zm152.265 60.3c-.008-.004-.016-.007-.025-.009l-153.653-59.716a.52.52 0 0 1-.333-.452.52.52 0 0 1 .265-.493l58.279-32.704c.201-.115.455-.08.621.08l95.376 92.418c.179.175.211.451.076.66a.53.53 0 0 1-.605.216M522.151 418.197l74.516 52.225-53.736-156.369zm75.373 54.079c-.049-.016-.095-.039-.137-.069l-76.117-53.345c-.171-.12-.255-.329-.213-.533l21.225-106.382c.047-.231.243-.404.479-.42s.455.128.531.353l54.892 159.729a.52.52 0 0 1-.659.668m169.057-153.165l-24.313 138.205 158.005 45.268zm-25.075 139.077c-.247-.081-.397-.331-.353-.589l24.609-139.882c.037-.208.193-.372.399-.42.2-.047.417.031.541.201l135.317 185.7a.53.53 0 0 1 .005.609c-.128.184-.359.265-.575.204l-159.925-45.816"/></g><g fill="#8f9195"><path d="M463.124 16.871a13.63 13.63 0 0 0-17.175 8.688 13.63 13.63 0 0 0 8.688 17.176 13.63 13.63 0 0 0 17.175-8.689 13.63 13.63 0 0 0-8.688-17.175zm-8.815 26.86a14.68 14.68 0 0 1-9.356-18.499 14.68 14.68 0 0 1 18.497-9.357 14.68 14.68 0 0 1 9.357 18.497 14.68 14.68 0 0 1-18.499 9.359m14.18-10.775c-1.74 5.305-7.455 8.196-12.76 6.455s-8.197-7.455-6.456-12.76 7.455-8.197 12.761-6.456 8.196 7.455 6.455 12.761m79.925 261.212c-9.793-3.215-20.376 2.139-23.589 11.932s2.14 20.376 11.933 23.589 20.376-2.14 23.589-11.933-2.14-20.375-11.933-23.588zm-11.983 36.517c-10.343-3.393-15.996-14.569-12.603-24.912s14.569-15.996 24.912-12.603a19.77 19.77 0 0 1 12.603 24.912c-3.395 10.343-14.569 15.997-24.912 12.603m10.466-31.895c-7.244-2.376-15.069 1.583-17.447 8.827s1.581 15.071 8.825 17.448 15.071-1.583 17.448-8.827-1.583-15.071-8.827-17.448zm-8.948 27.271c-7.793-2.557-12.052-10.977-9.495-18.771s10.977-12.053 18.769-9.496 12.053 10.979 9.496 18.771-10.977 12.053-18.771 9.496"/><path d="M552.227 315.092a10.15 10.15 0 0 1-12.805 6.477 10.15 10.15 0 0 1-6.477-12.805 10.15 10.15 0 0 1 12.805-6.477 10.15 10.15 0 0 1 6.477 12.805m49.325 157.333a5.01 5.01 0 0 1-6.32 3.197 5.01 5.01 0 0 1-3.196-6.319 5.01 5.01 0 0 1 6.32-3.197 5.01 5.01 0 0 1 3.196 6.319m-28.563-18.63c-.292.891-1.252 1.376-2.143 1.083a1.7 1.7 0 0 1-1.084-2.141 1.7 1.7 0 0 1 2.143-1.084 1.7 1.7 0 0 1 1.084 2.143m-14.756-10.378c-.367 1.12-1.573 1.731-2.693 1.364s-1.731-1.575-1.363-2.695 1.573-1.729 2.693-1.363 1.731 1.575 1.363 2.693m-35.277-28.784a4.12 4.12 0 0 0-5.189 2.624c-.707 2.156.471 4.484 2.625 5.189a4.12 4.12 0 0 0 5.189-2.625 4.12 4.12 0 0 0-2.625-5.188zm-2.891 8.809a5.17 5.17 0 0 1-3.295-6.512 5.17 5.17 0 0 1 6.512-3.293 5.17 5.17 0 0 1 3.295 6.511 5.17 5.17 0 0 1-6.512 3.295m4.35-4.005c-.497 1.515-2.127 2.339-3.64 1.843s-2.339-2.127-1.841-3.641 2.125-2.337 3.64-1.84a2.88 2.88 0 0 1 1.841 3.639m4.841-24.938c-.496 1.513-2.125 2.339-3.64 1.841s-2.339-2.127-1.841-3.641 2.127-2.337 3.64-1.84 2.339 2.125 1.841 3.64m42.893-4.012c-.496 1.513-2.125 2.337-3.64 1.841s-2.339-2.127-1.841-3.64 2.127-2.339 3.64-1.841 2.339 2.125 1.841 3.64m51.523-81.6a5.49 5.49 0 0 0-6.916 3.499 5.49 5.49 0 0 0 3.499 6.916 5.49 5.49 0 0 0 6.915-3.499 5.49 5.49 0 0 0-3.497-6.916zm-3.744 11.411a6.54 6.54 0 0 1-4.168-8.239c1.123-3.421 4.817-5.291 8.239-4.168a6.54 6.54 0 0 1 4.167 8.239 6.54 6.54 0 0 1-8.237 4.168m4.775-5.304c-.497 1.513-2.127 2.339-3.64 1.841a2.89 2.89 0 0 1-1.843-3.64c.496-1.513 2.127-2.339 3.641-1.841s2.337 2.127 1.841 3.64m72.689 1.884a2.89 2.89 0 0 1-3.641 1.841c-1.513-.497-2.337-2.127-1.84-3.64s2.125-2.339 3.639-1.843 2.339 2.127 1.843 3.641m70.665-4.285c-2.812-.924-5.853.615-6.776 3.429a5.38 5.38 0 0 0 3.427 6.776 5.38 5.38 0 0 0 6.777-3.428c.925-2.815-.615-5.855-3.428-6.777zm-3.676 11.201a6.43 6.43 0 0 1-4.096-8.1c1.103-3.363 4.737-5.201 8.099-4.097a6.43 6.43 0 0 1 4.097 8.1 6.43 6.43 0 0 1-8.1 4.097m5.664-4.897c-.664 2.023-2.841 3.124-4.863 2.46s-3.124-2.841-2.461-4.863 2.841-3.124 4.863-2.461 3.124 2.841 2.461 4.864m41.503 58.762a2.27 2.27 0 0 1-2.86 1.447 2.27 2.27 0 0 1-1.447-2.86 2.27 2.27 0 0 1 2.86-1.447 2.27 2.27 0 0 1 1.447 2.86m9.582 12.447c-.489 1.488-2.091 2.3-3.579 1.811s-2.299-2.091-1.809-3.577a2.84 2.84 0 0 1 3.577-1.812 2.84 2.84 0 0 1 1.811 3.579m6.084 9.106a2.27 2.27 0 0 1-2.86 1.447 2.27 2.27 0 0 1-1.448-2.86 2.27 2.27 0 0 1 2.86-1.447 2.27 2.27 0 0 1 1.448 2.86m-72.977 5.645a3.23 3.23 0 1 1-2.062-4.078 3.23 3.23 0 0 1 2.063 4.077m1.446-13.307a2.27 2.27 0 0 1-2.861 1.447 2.27 2.27 0 0 1-1.447-2.86 2.27 2.27 0 0 1 2.861-1.447 2.27 2.27 0 0 1 1.447 2.86m1.9-21.771a2.97 2.97 0 0 0-3.743 1.895 2.97 2.97 0 0 0 1.893 3.744 2.97 2.97 0 0 0 3.744-1.893 2.97 2.97 0 0 0-1.895-3.745zm-2.176 6.635a4.02 4.02 0 0 1-2.563-5.067 4.02 4.02 0 0 1 5.067-2.564 4.02 4.02 0 0 1 2.563 5.068 4.02 4.02 0 0 1-5.067 2.563m3.405-3.109a2.27 2.27 0 0 1-2.86 1.447c-1.191-.391-1.837-1.671-1.447-2.86a2.27 2.27 0 0 1 2.859-1.448 2.27 2.27 0 0 1 1.448 2.861m85.627 48.687a2.89 2.89 0 0 1-3.645 1.845 2.89 2.89 0 0 1-1.844-3.645 2.89 2.89 0 0 1 3.645-1.845 2.89 2.89 0 0 1 1.844 3.645m-35.388 50.373a4.45 4.45 0 0 0-5.604 2.836 4.45 4.45 0 0 0 2.835 5.604c2.327.764 4.841-.508 5.604-2.833a4.45 4.45 0 0 0-2.835-5.607zm-3.096 9.436a5.5 5.5 0 0 1-3.504-6.927 5.5 5.5 0 0 1 6.927-3.505 5.5 5.5 0 0 1 3.504 6.929c-.944 2.875-4.051 4.447-6.927 3.503m4.457-4.315a2.89 2.89 0 0 1-5.492-1.801 2.89 2.89 0 0 1 5.492 1.801m26.853 7.772a2.89 2.89 0 0 1-3.645 1.844 2.89 2.89 0 0 1-1.844-3.645 2.89 2.89 0 0 1 3.645-1.844 2.89 2.89 0 0 1 1.844 3.645"/><path d="M906.172 504.739c-.917 2.795-3.925 4.317-6.721 3.4a5.33 5.33 0 0 1-3.4-6.721c.917-2.795 3.925-4.317 6.721-3.4s4.317 3.925 3.4 6.721m-163.081-51.218a4.28 4.28 0 0 0-5.393 2.728 4.28 4.28 0 0 0 2.729 5.392 4.28 4.28 0 0 0 5.392-2.727c.736-2.24-.488-4.66-2.728-5.393zm-2.991 9.117a5.33 5.33 0 0 1-3.399-6.717 5.33 5.33 0 0 1 6.716-3.396 5.33 5.33 0 0 1 3.397 6.716 5.33 5.33 0 0 1-6.715 3.397m4.406-4.157a2.89 2.89 0 0 1-3.645 1.845 2.89 2.89 0 0 1-1.844-3.645c.497-1.517 2.128-2.343 3.644-1.845a2.89 2.89 0 0 1 1.845 3.645m-69.297-142.24c-.497 1.515-2.125 2.339-3.64 1.843s-2.339-2.127-1.841-3.641 2.127-2.337 3.639-1.841a2.89 2.89 0 0 1 1.843 3.64m-44.319-61.908a3.77 3.77 0 0 0-4.756 2.405c-.649 1.976.431 4.109 2.407 4.759s4.109-.432 4.757-2.408-.432-4.109-2.408-4.756zm-2.676 8.16c-2.525-.828-3.905-3.557-3.077-6.081s3.556-3.904 6.081-3.076 3.904 3.556 3.076 6.081-3.556 3.904-6.08 3.076m37.226-24.283a2.602 2.602 0 1 1-4.944-1.623c.448-1.365 1.919-2.109 3.284-1.661s2.108 1.919 1.66 3.284m8.989-5.806a2.601 2.601 0 1 1-4.943-1.623 2.6 2.6 0 0 1 3.283-1.661c1.365.448 2.108 1.919 1.66 3.284m88.778-63.901a8.52 8.52 0 0 0-10.733 5.431 8.52 8.52 0 0 0 5.431 10.733c4.456 1.463 9.272-.973 10.733-5.429a8.52 8.52 0 0 0-5.431-10.735zm-5.629 17.16a9.57 9.57 0 0 1-6.1-12.056 9.57 9.57 0 0 1 12.057-6.1 9.57 9.57 0 0 1 6.1 12.057 9.57 9.57 0 0 1-12.057 6.099"/><path d="M764.579 177.907c-.728 2.221-3.121 3.431-5.343 2.703s-3.433-3.121-2.704-5.343 3.121-3.432 5.344-2.704 3.431 3.121 2.703 5.344m74.748-5.914c-.729 2.221-3.121 3.431-5.343 2.703s-3.432-3.121-2.703-5.343 3.121-3.432 5.343-2.704 3.432 3.123 2.703 5.344m48.741 72.827c-.729 2.221-3.121 3.432-5.343 2.703s-3.432-3.121-2.703-5.343a4.23 4.23 0 0 1 5.341-2.703c2.221.728 3.433 3.121 2.704 5.343m16.792-18.875a5.68 5.68 0 0 0-7.156 3.62 5.68 5.68 0 0 0 3.621 7.156 5.68 5.68 0 0 0 7.155-3.62 5.68 5.68 0 0 0-3.62-7.156zm-3.861 11.772a6.73 6.73 0 0 1-4.291-8.479 6.73 6.73 0 0 1 8.48-4.291 6.73 6.73 0 0 1 4.288 8.48 6.73 6.73 0 0 1-8.477 4.289"/><path d="M907.115 232.653c-.729 2.221-3.121 3.432-5.344 2.703a4.23 4.23 0 0 1-2.701-5.343c.73-2.222 3.121-3.432 5.343-2.704s3.432 3.121 2.703 5.344m19.216-12.214c-.729 2.221-3.121 3.432-5.344 2.703a4.23 4.23 0 0 1-2.701-5.343c.73-2.222 3.121-3.432 5.343-2.703s3.432 3.121 2.703 5.343M816.415 82.472c-4.793-1.573-9.973 1.047-11.547 5.84s1.047 9.973 5.841 11.547a9.16 9.16 0 0 0 11.544-5.841 9.16 9.16 0 0 0-5.839-11.545zm-6.032 18.381a10.21 10.21 0 0 1-6.511-12.868 10.21 10.21 0 0 1 12.869-6.509 10.21 10.21 0 0 1 6.508 12.868 10.21 10.21 0 0 1-12.867 6.509m4.956-15.099c-2.983-.979-6.208.652-7.188 3.636s.653 6.208 3.637 7.187a5.7 5.7 0 0 0 7.185-3.635c.977-2.983-.652-6.209-3.635-7.188zm-3.877 11.819c-3.535-1.159-5.465-4.976-4.307-8.509s4.979-5.464 8.511-4.305 5.465 4.977 4.305 8.511a6.75 6.75 0 0 1-8.509 4.304"/><path d="M817.585 92.486a4.23 4.23 0 0 1-5.341 2.701c-2.223-.728-3.433-3.12-2.704-5.341s3.121-3.432 5.343-2.704 3.432 3.121 2.703 5.344m46.928 69.483c-3.601-1.183-7.493.785-8.675 4.387s.787 7.493 4.388 8.675 7.492-.787 8.675-4.388-.788-7.492-4.388-8.673zm-4.613 14.057a7.93 7.93 0 0 1-5.057-9.997 7.93 7.93 0 0 1 9.997-5.056c4.149 1.361 6.417 5.845 5.057 9.996a7.93 7.93 0 0 1-9.997 5.057"/><path d="M866.393 169.82c-.729 2.221-3.121 3.432-5.343 2.703s-3.432-3.121-2.703-5.343 3.121-3.432 5.344-2.704 3.431 3.121 2.701 5.344m157.68-22.667c-4.84-1.588-10.072 1.059-11.66 5.9s1.057 10.072 5.897 11.66 10.073-1.057 11.661-5.899-1.057-10.072-5.899-11.661zm-6.089 18.556c-5.391-1.768-8.336-7.593-6.568-12.984s7.595-8.336 12.984-6.568 8.337 7.593 6.569 12.984-7.595 8.337-12.985 6.568m9.505-7.709a6.63 6.63 0 0 1-8.363 4.231 6.63 6.63 0 0 1-4.232-8.364 6.63 6.63 0 0 1 8.364-4.229 6.63 6.63 0 0 1 4.231 8.363m56.388-33.522a3.49 3.49 0 0 1-4.404 2.228c-1.831-.6-2.828-2.572-2.225-4.403a3.49 3.49 0 0 1 4.401-2.228 3.49 3.49 0 0 1 2.228 4.403m32.687 32.536c-.315.963-1.353 1.488-2.316 1.172s-1.489-1.353-1.172-2.317 1.352-1.487 2.316-1.172 1.488 1.355 1.172 2.317m7.341 6.709c-.408 1.241-1.744 1.917-2.985 1.509s-1.916-1.743-1.508-2.984 1.741-1.916 2.984-1.509 1.916 1.743 1.509 2.984m9.179 6.685a2.86 2.86 0 0 0-3.607 1.825 2.86 2.86 0 0 0 1.825 3.607 2.86 2.86 0 0 0 3.607-1.825 2.86 2.86 0 0 0-1.825-3.607zm-2.109 6.428a3.91 3.91 0 0 1-2.493-4.929c.671-2.047 2.883-3.167 4.931-2.495a3.91 3.91 0 0 1 2.493 4.929 3.91 3.91 0 0 1-4.931 2.495m2.962-3.14c-.316.964-1.353 1.488-2.316 1.172s-1.488-1.353-1.172-2.316 1.353-1.488 2.316-1.172 1.488 1.353 1.172 2.316"/><path d="M1179.237 216.572a3.92 3.92 0 1 1-7.449-2.444 3.92 3.92 0 1 1 7.449 2.444m-546.78 42.242c-.497 1.515-2.127 2.339-3.64 1.843a2.89 2.89 0 0 1-1.843-3.641c.496-1.513 2.127-2.337 3.641-1.841s2.337 2.127 1.841 3.64M577.74 406.119c-.496 1.513-2.127 2.337-3.64 1.841s-2.339-2.127-1.841-3.641 2.127-2.339 3.64-1.841 2.339 2.127 1.841 3.641m-88.771-288.78a4.66 4.66 0 0 1-5.88 2.973 4.66 4.66 0 0 1-2.973-5.879 4.66 4.66 0 0 1 5.879-2.973 4.66 4.66 0 0 1 2.975 5.879m-97.568 50.804l-.473-.936a8.78 8.78 0 0 0 4.405-5.131c.737-2.245.556-4.643-.511-6.752l.923-.497.012.024a9.83 9.83 0 0 1 .573 7.552c-.824 2.509-2.573 4.547-4.929 5.74zm-13.295-4.347l-.021-.044a9.81 9.81 0 0 1-.557-7.52 9.83 9.83 0 0 1 4.915-5.733l.476.935a8.79 8.79 0 0 0-3.883 11.876l-.929.487m10.758-10.38a6.22 6.22 0 0 0-7.837 3.964 6.22 6.22 0 0 0 3.965 7.836 6.22 6.22 0 0 0 7.836-3.964 6.22 6.22 0 0 0-3.964-7.836zm-4.199 12.796a7.27 7.27 0 0 1-4.635-9.159 7.27 7.27 0 0 1 9.16-4.633 7.27 7.27 0 0 1 4.633 9.16 7.27 7.27 0 0 1-9.159 4.632"/><path d="M391.356 160.771a4.66 4.66 0 0 1-5.88 2.973 4.66 4.66 0 0 1-2.973-5.879 4.66 4.66 0 0 1 5.879-2.975 4.66 4.66 0 0 1 2.975 5.88m-68.235-17.487a2.91 2.91 0 0 1-3.671 1.857 2.91 2.91 0 0 1-1.857-3.671 2.91 2.91 0 0 1 3.672-1.857 2.91 2.91 0 0 1 1.856 3.671m35.738 45.02c-.373 1.135-1.595 1.753-2.731 1.38a2.16 2.16 0 0 1-1.38-2.729c.373-1.134 1.595-1.753 2.729-1.381s1.753 1.595 1.381 2.731m-8.259 8.317a2.58 2.58 0 0 1-3.255 1.647 2.58 2.58 0 0 1-1.647-3.255 2.58 2.58 0 0 1 3.255-1.647 2.58 2.58 0 0 1 1.647 3.255m-11.672 9.67a1.46 1.46 0 0 1-2.776-.911 1.46 1.46 0 0 1 1.844-.932c.765.252 1.183 1.077.932 1.843m-7.049 3.104c-1.317-.432-2.74.288-3.172 1.607a2.52 2.52 0 0 0 1.604 3.173 2.52 2.52 0 0 0 3.173-1.607 2.52 2.52 0 0 0-1.605-3.173zm-1.895 5.776a3.57 3.57 0 0 1-2.273-4.497c.612-1.867 2.628-2.887 4.495-2.275a3.57 3.57 0 0 1 2.275 4.496 3.57 3.57 0 0 1-4.496 2.276"/><path d="M332.483 212.24a1.46 1.46 0 1 1-2.775-.911 1.46 1.46 0 1 1 2.775.911m-40.504 31.705c-3.397-1.115-7.068.741-8.183 4.14a6.49 6.49 0 0 0 4.14 8.181c3.397 1.114 7.067-.743 8.181-4.139s-.741-7.069-4.139-8.183zm-4.369 13.317c-3.947-1.295-6.104-5.559-4.809-9.505s5.56-6.104 9.505-4.809 6.104 5.56 4.808 9.507a7.54 7.54 0 0 1-9.504 4.808"/><path d="M293.125 251.144c-.573 1.749-2.457 2.703-4.207 2.128s-2.7-2.456-2.127-4.205 2.457-2.701 4.205-2.128 2.701 2.457 2.128 4.205m5.371-20.437l-.477-.935c.872-.444 1.52-1.2 1.824-2.129a3.65 3.65 0 0 0-.212-2.804l.916-.512.019.039a4.68 4.68 0 0 1 .273 3.605c-.391 1.193-1.223 2.164-2.343 2.736zm-6.349-2.057l-.009-.019a4.69 4.69 0 0 1-.273-3.605c.388-1.185 1.215-2.153 2.323-2.725l.48.931a3.66 3.66 0 0 0-1.807 2.121 3.65 3.65 0 0 0 .212 2.805l-.925.492m6.442-1.418c-.405 1.236-1.736 1.909-2.973 1.504s-1.909-1.736-1.503-2.973 1.736-1.909 2.972-1.504 1.911 1.737 1.504 2.973m3.845-11.18a2.94 2.94 0 0 1-3.707 1.876 2.94 2.94 0 0 1-1.875-3.707 2.94 2.94 0 0 1 3.707-1.876 2.94 2.94 0 0 1 1.875 3.707m11.313-36.179c-.671 2.043-2.871 3.156-4.915 2.485s-3.156-2.871-2.485-4.913 2.871-3.156 4.913-2.485a3.9 3.9 0 0 1 2.487 4.913m181.265-39.601a5.43 5.43 0 0 0-6.841 3.46 5.43 5.43 0 0 0 3.461 6.84 5.43 5.43 0 0 0 6.84-3.46c.932-2.84-.62-5.909-3.46-6.84zm-3.708 11.296a6.48 6.48 0 0 1-4.129-8.163 6.48 6.48 0 0 1 8.164-4.129c3.389 1.112 5.241 4.773 4.129 8.163a6.48 6.48 0 0 1-8.164 4.129m4.648-5.283a2.77 2.77 0 0 1-3.493 1.768 2.77 2.77 0 0 1-1.768-3.495 2.77 2.77 0 0 1 3.495-1.768 2.77 2.77 0 0 1 1.767 3.495"/></g></svg>